<svg xmlns="http://www.w3.org/2000/svg" xmlns:xlink="http://www.w3.org/1999/xlink" width="1023" height="719" viewBox="0 0 1023 719"><defs><path id="zx8da" d="M1531.97 1913.3a4.67 4.67 0 0 1-2.74 8.93 20.66 20.66 0 0 1-13.76-25.79l16.37-53.53a20.7 20.7 0 0 1 25.86-13.68l76.3 23.33a20.69 20.69 0 0 1 13.78 25.8l-16.37 53.53a20.63 20.63 0 0 1-25.84 13.68l-39.51-12.08-29.75 15.82a4.67 4.67 0 0 1-4.39-8.26l31.46-16.72c1.1-.58 2.37-.7 3.56-.35l41.36 12.65a11.28 11.28 0 0 0 14.17-7.47l16.37-53.54a11.34 11.34 0 0 0-7.58-14.12l-76.3-23.33a11.35 11.35 0 0 0-14.18 7.47l-16.37 53.54a11.32 11.32 0 0 0 7.56 14.11zm23.28-45.72l59.58 18.21c5.96 1.83 3.23 10.76-2.73 8.94l-59.58-18.22c-5.96-1.82-3.23-10.76 2.73-8.93zm-8.2 26.81c-5.96-1.82-3.23-10.76 2.73-8.94l35.75 10.93c5.96 1.82 3.23 10.76-2.73 8.94zm213.68-146.4a3.89 3.89 0 1 1 2.14 7.47 17.18 17.18 0 0 1-21.27-11.75l-12.84-44.76a17.2 17.2 0 0 1 11.84-21.25l63.78-18.29a17.2 17.2 0 0 1 21.3 11.75l12.83 44.76a17.16 17.16 0 0 1-11.83 21.24l-33.03 9.47-13.58 24.5a3.88 3.88 0 1 1-6.8-3.76l14.37-25.92c.5-.9 1.33-1.56 2.32-1.85l34.58-9.91a9.39 9.39 0 0 0 6.5-11.63l-12.83-44.76a9.43 9.43 0 0 0-11.69-6.41l-63.78 18.28a9.44 9.44 0 0 0-6.5 11.64l12.83 44.75a9.41 9.41 0 0 0 11.66 6.43zm-2.33-34.96c-4.98 1.42-7.12-6.05-2.14-7.47l49.81-14.29c4.98-1.43 7.12 6.05 2.14 7.47zm2.15 7.47l29.88-8.57c4.98-1.43 7.13 6.04 2.14 7.47l-29.88 8.57c-4.98 1.43-7.12-6.04-2.14-7.47zm-815.79 572.88a12.3 12.3 0 0 0 14.93 8.91 5.08 5.08 0 1 1 2.46 9.86 22.45 22.45 0 0 1-27.24-16.32l-14.72-59.01a22.48 22.48 0 0 1 16.43-27.2l84.1-20.97c12.06-3 24.28 4.3 27.27 16.3l14.71 59.02c3 12.04-4.3 24.18-16.4 27.2l-43.56 10.86-18.85 31.37a5.08 5.08 0 1 1-8.7-5.23l19.93-33.18a5.08 5.08 0 0 1 3.12-2.3l45.6-11.37a12.26 12.26 0 0 0 9.01-14.9l-14.71-59a12.32 12.32 0 0 0-14.96-8.92l-84.1 20.97a12.33 12.33 0 0 0-9.03 14.9zm13.5-36.83c-6.58 1.63-9.03-8.22-2.47-9.86l65.69-16.37c6.56-1.64 9.02 8.21 2.45 9.85zm2.45 9.85l39.4-9.83c6.57-1.63 9.03 8.22 2.46 9.86l-39.4 9.82c-6.57 1.64-9.03-8.21-2.46-9.85zm768.97-390.72a6.02 6.02 0 0 0-5.14-6.78l-41.95-5.89a6.02 6.02 0 0 0-6.81 5.1l-4.14 29.43a5.99 5.99 0 0 0 5.14 6.77l22.74 3.2c.65.09 1.24.43 1.64.96l11.38 15.1a2.48 2.48 0 1 1-3.96 2.99l-10.77-14.28-21.72-3.06a10.95 10.95 0 0 1-9.36-12.38l4.14-29.43a10.98 10.98 0 0 1 12.41-9.31l41.95 5.9c6 .84 10.2 6.38 9.37 12.37l-4.14 29.43c-.84 6-6.4 10.17-12.4 9.32a2.48 2.48 0 1 1 .68-4.91 6 6 0 0 0 6.8-5.1zm-12.57 12.22l-32.76-4.6c-3.27-.46-2.58-5.38.7-4.91l32.75 4.6c3.28.46 2.59 5.37-.69 4.91zm-1.38 9.83l-19.65-2.76c-3.28-.46-2.59-5.38.69-4.92l19.65 2.77c3.27.46 2.58 5.37-.7 4.9zm129.88-121.45a20.06 20.06 0 1 0-32.52 22.94l30.16 38.7a3.2 3.2 0 0 1-5.04 3.93l-30.02-38.52a26.46 26.46 0 1 1 41.1-33.2 26.46 26.46 0 1 1 33.3 41.12l-27.33 21.34a3.2 3.2 0 1 1-3.93-5.04l11.13-8.7 16.2-12.65a20.06 20.06 0 1 0-27.28-29.2 3.2 3.2 0 0 1-3.09.98 3.2 3.2 0 0 1-2.68-1.7zm-24.76 13.26a3.2 3.2 0 0 1-6.08 1.98 14.83 14.83 0 0 1 22.8-16.6 3.2 3.2 0 0 1-3.76 5.18 8.43 8.43 0 0 0-12.96 9.44zm-894.5 543.14a13.26 13.26 0 1 0-20.38 16.63l21.68 24.12a2.11 2.11 0 1 1-3.15 2.83l-21.57-24.02a17.49 17.49 0 1 1 25.58-23.79 17.49 17.49 0 1 1 23.84 25.58l-17.03 15.33a2.11 2.11 0 0 1-2.83-3.14l6.94-6.24 10.1-9.1a13.26 13.26 0 1 0-19.33-18 2.11 2.11 0 0 1-1.99.8 2.11 2.11 0 0 1-1.85-1zm-16.87 12.64a2.11 2.11 0 0 1-2.75-1.17 9.8 9.8 0 0 1 14.26-12 2.12 2.12 0 0 1-2.23 3.6 5.57 5.57 0 0 0-8.11 6.81 2.11 2.11 0 0 1-1.17 2.76zm751.82-289.24a9.53 9.53 0 0 0-8.51-10.43l-66.61-7a9.52 9.52 0 0 0-10.5 8.43l-4.9 46.74a9.47 9.47 0 0 0 8.5 10.43l36.1 3.8c1.04.1 1.99.62 2.64 1.42l18.83 23.25a3.92 3.92 0 0 1-6.1 4.94l-17.8-21.99-34.5-3.62a17.32 17.32 0 0 1-15.48-19.05l4.91-46.74c1-9.51 9.57-16.41 19.12-15.4l66.6 7c9.55 1 16.5 9.52 15.5 19.04l-4.91 46.74a17.35 17.35 0 0 1-19.1 15.41 3.92 3.92 0 0 1 .83-7.8 9.5 9.5 0 0 0 10.46-8.43zm-71.22 14.54c-5.2-.55-4.38-8.35.82-7.8l52.02 5.47c5.2.54 4.38 8.35-.82 7.8zm19.17 17.8c-5.2-.55-4.38-8.36.82-7.8l31.21 3.27c5.2.55 4.38 8.35-.82 7.8zm-343.56-11.25a3.95 3.95 0 0 1-2.7 7.43 17.47 17.47 0 0 1-10.49-22.39l16.2-44.49a17.5 17.5 0 0 1 22.43-10.4l63.4 23.07a17.5 17.5 0 0 1 10.5 22.4l-16.19 44.49a17.45 17.45 0 0 1-22.42 10.4l-32.84-11.95-25.82 12.04a3.95 3.95 0 1 1-3.34-7.16l27.3-12.73a3.95 3.95 0 0 1 3.03-.13l34.37 12.5a9.54 9.54 0 0 0 12.3-5.68l16.19-44.49a9.6 9.6 0 0 0-5.78-12.26l-63.4-23.08a9.6 9.6 0 0 0-12.3 5.68l-16.2 44.5a9.57 9.57 0 0 0 5.76 12.25zm18.98-30.15c-4.95-1.8-2.25-9.23 2.7-7.43l49.52 18.02c4.95 1.8 2.24 9.23-2.7 7.43zm-5.4 14.85c-4.96-1.8-2.26-9.23 2.7-7.42l29.7 10.81c4.96 1.8 2.25 9.23-2.7 7.43zm481.13-92.53a6.42 6.42 0 0 0 6.96-.5 2.75 2.75 0 0 1 3.32 4.39 11.92 11.92 0 0 1-19.01-10.99l-19-3.35a2.75 2.75 0 0 1-2.22-3.18l.58-3.3c.46-2.63 2.38-5.9 4.44-7.56l7.39-5.95a8.65 8.65 0 0 0 2.48-4.24l1.94-11a22.98 22.98 0 0 1 18.18-18.54l.1-.61c1.1-6.29 5.33-11.16 10.19-10.3 4.85.85 7.16 6.88 6.05 13.16l-.11.6c8 4.81 12.4 14.15 10.73 23.65l-1.94 11c-.23 1.33.2 3.7.89 4.84l4.89 8.11a13.94 13.94 0 0 1 1.59 8.63l-.58 3.29a2.75 2.75 0 0 1-3.19 2.23l-36.98-6.52a6.42 6.42 0 0 0 3.3 6.14zm26.6-38.68a17.42 17.42 0 0 0-9.72-18.82 2.75 2.75 0 0 1-1.42-3.42c.23-.65.4-1.32.53-2 .65-3.69-.47-6.6-1.6-6.8-1.12-.2-3.17 2.16-3.82 5.84-.12.7-.19 1.4-.19 2.07 0 1.42-1.09 2.6-2.5 2.73-7.76.71-14.2 6.55-15.58 14.35l-1.94 11a13.99 13.99 0 0 1-4.45 7.57l-7.38 5.95a8.77 8.77 0 0 0-2.49 4.24l-.1.58 55.99 9.88.1-.59a8.6 8.6 0 0 0-.88-4.83l-4.9-8.12a14.09 14.09 0 0 1-1.58-8.62zm-50.66 23.3l-2.7-.49 2.22 3.2zm55.99 9.87l-.48 2.7 3.19-2.23zm6.15-34.87a2.75 2.75 0 0 1 5.41.96l-2.86 16.22a2.75 2.75 0 1 1-5.41-.96zm-61.4-10.82a2.75 2.75 0 0 1 5.42.95l-2.86 16.22a2.75 2.75 0 1 1-5.41-.95zm71.6 16.34a2.75 2.75 0 1 1 5.41.96l-.95 5.39a2.75 2.75 0 1 1-5.42-.96zm-84.01-9.25l.95-5.4a2.75 2.75 0 0 1 5.41.96l-.95 5.4a2.75 2.75 0 1 1-5.41-.96zm-616.94 325.6c1.51.82 3.37.7 4.75-.35a1.88 1.88 0 0 1 2.27 3 8.15 8.15 0 0 1-13-7.51l-12.98-2.3a1.88 1.88 0 0 1-1.53-2.17l.4-2.25a9.62 9.62 0 0 1 3.04-5.17l5.05-4.08a5.9 5.9 0 0 0 1.7-2.9l1.33-7.51a15.7 15.7 0 0 1 12.42-12.68l.07-.42c.76-4.3 3.65-7.63 6.97-7.04 3.32.58 4.9 4.7 4.14 9l-.08.4a15.68 15.68 0 0 1 7.34 16.18l-1.33 7.52a6 6 0 0 0 .61 3.3l3.34 5.56a9.53 9.53 0 0 1 1.1 5.9l-.4 2.24a1.88 1.88 0 0 1-2.18 1.53l-25.3-4.46a4.39 4.39 0 0 0 2.27 4.2zm18.19-26.45a11.91 11.91 0 0 0-6.65-12.87 1.88 1.88 0 0 1-.97-2.34c.15-.45.28-.9.36-1.37.44-2.52-.32-4.51-1.1-4.65-.76-.14-2.16 1.48-2.6 4-.09.47-.13.95-.14 1.41 0 .97-.74 1.78-1.7 1.86-5.36.5-9.72 4.52-10.66 9.82l-1.33 7.52a9.56 9.56 0 0 1-3.04 5.17l-5.05 4.07a6 6 0 0 0-1.7 2.9l-.06.4 38.28 6.75.07-.4a5.87 5.87 0 0 0-.6-3.3l-3.35-5.55a9.64 9.64 0 0 1-1.09-5.9zm-34.64 15.92l-1.86-.33 1.53 2.18zm38.28 6.75l-.33 1.85 2.18-1.52zm4.2-23.84a1.88 1.88 0 0 1 3.7.66l-1.95 11.09a1.88 1.88 0 0 1-3.7-.66zm-41.97-7.4a1.88 1.88 0 1 1 3.7.65l-1.96 11.1a1.88 1.88 0 1 1-3.7-.66zm48.94 11.18a1.88 1.88 0 1 1 3.7.65l-.64 3.68a1.88 1.88 0 0 1-3.7-.65zm-56.79-10.02a1.88 1.88 0 1 1 3.7.66l-.64 3.68a1.88 1.88 0 0 1-3.7-.65zm468.2-239.82a14.59 14.59 0 1 0-13.5 25.6l32.32 15.12a2.33 2.33 0 0 1-1.97 4.21l-32.17-15.05a19.24 19.24 0 1 1 15.68-35.09 19.24 19.24 0 1 1 35.15 15.65l-10.67 22.86a2.33 2.33 0 1 1-4.21-1.97l4.34-9.3 6.32-13.55a14.59 14.59 0 1 0-27.32-9.92 2.32 2.32 0 0 1-1.67 1.65c-.76.35-1.63.26-2.3-.21zm-11.67 20.05c-.9.91-2.38.91-3.29 0a10.78 10.78 0 0 1 9.29-18.28 2.33 2.33 0 0 1-.72 4.6 6.13 6.13 0 0 0-5.28 10.4c.91.9.91 2.38 0 3.28zm-364.3 106.54a19.48 19.48 0 1 0-32.33 21.16l27.95 38.56a3.1 3.1 0 0 1-5.02 3.65l-27.82-38.4a25.69 25.69 0 1 1 41-30.82 25.68 25.68 0 1 1 30.9 41.02l-27.22 19.79a3.1 3.1 0 0 1-3.65-5.02l11.1-8.07 16.13-11.73a19.47 19.47 0 1 0-25.47-29.26 3.1 3.1 0 0 1-3.03.86 3.1 3.1 0 0 1-2.54-1.74zm-25.22 15.04a3.1 3.1 0 0 1-5.22-1.3 14.4 14.4 0 0 1 22.68-15.34 3.1 3.1 0 0 1-3.81 4.9 8.19 8.19 0 0 0-12.9 8.72 3.1 3.1 0 0 1-.75 3.02zm570.2-71.13l8.42.36c.99.05 1.96-.24 2.77-.8l31.36-21.96a2.7 2.7 0 0 1 3.09 4.4l-31.37 21.97a9.87 9.87 0 0 1-6.08 1.77l-22.9-.97a2.7 2.7 0 0 1-2.3-3.87l10.61-21.83a9.87 9.87 0 0 1 3.22-3.77l29.62-20.74a2.7 2.7 0 0 1 3.1 4.41l-29.63 20.74a4.48 4.48 0 0 0-1.46 1.72l-4.44 9.12a24.34 24.34 0 0 1 6 9.45zm50-24.79l-15.65-22.43a2.7 2.7 0 0 1-.45-.64l-2.2-3.16c-2.05-2.94 2.36-6.02 4.42-3.08l.88 1.27c2.93-2.05 4.4-3.08 4.41-3.1a9.87 9.87 0 0 1 13.74 2.52l7.81 11.31a9.87 9.87 0 0 1-2.46 13.7l-4.34 3.04.85 1.2c2.05 2.95-2.36 6.03-4.42 3.09l-2.17-3.11c-.17-.19-.3-.39-.42-.6zm7.41-8.02a4.49 4.49 0 0 0 1.12-6.23l-7.81-11.31a4.5 4.5 0 0 0-6.27-1.13l-4.37 3.06 13 18.64zm-21.87-4.09a2.7 2.7 0 0 1-.6 3.7l-27.42 19.2a2.7 2.7 0 1 1-3.08-4.4l27.4-19.2a2.7 2.7 0 0 1 3.7.7zm5.43 7.48a2.7 2.7 0 0 1-.62 3.72l-27.08 18.96a2.7 2.7 0 0 1-3.09-4.41l27.08-18.96a2.7 2.7 0 0 1 3.7.69zM1888.56 1735l12.3.53a6.54 6.54 0 0 0 4.03-1.18l45.8-32.06a3.93 3.93 0 0 1 4.5 6.44l-45.79 32.06a14.42 14.42 0 0 1-8.88 2.6l-33.44-1.44a3.93 3.93 0 0 1-3.36-5.64l15.5-31.87c1.07-2.2 2.69-4.1 4.7-5.5l43.25-30.29a3.93 3.93 0 0 1 4.5 6.44l-43.24 30.29a6.55 6.55 0 0 0-2.14 2.5l-6.48 13.32a35.53 35.53 0 0 1 8.75 13.8zm73-36.2l-22.84-32.74c-.27-.28-.49-.6-.66-.94l-3.21-4.61c-3-4.3 3.44-8.8 6.44-4.5l1.3 1.85 6.44-4.51a14.41 14.41 0 0 1 20.05 3.66l11.4 16.52a14.41 14.41 0 0 1-3.58 20l-6.34 4.43 1.24 1.77c3 4.3-3.45 8.8-6.45 4.5l-3.17-4.55a3.89 3.89 0 0 1-.62-.88zm10.83-11.71a6.55 6.55 0 0 0 1.63-9.1l-11.41-16.5a6.56 6.56 0 0 0-9.15-1.65l-6.38 4.47 18.99 27.2zm-33.41-7.34a3.93 3.93 0 0 1 .59 6.78l-40.02 28.03a3.93 3.93 0 1 1-4.51-6.44l40.02-28.03a3.93 3.93 0 0 1 3.92-.34zm9.38 12.3a3.93 3.93 0 0 1-.9 5.42l-39.52 27.68a3.93 3.93 0 1 1-4.5-6.44l39.52-27.68a3.93 3.93 0 0 1 5.4 1.02zm-580.65 501.38a7.68 7.68 0 0 0-2.5-2.92l-50.65-35.47a4.6 4.6 0 0 1 5.28-7.55l50.66 35.47a16.88 16.88 0 0 1 5.5 6.45l18.15 37.32a4.6 4.6 0 0 1-3.94 6.62l-39.16 1.67c-3.7.16-7.36-.9-10.4-3.04l-53.63-37.55a4.6 4.6 0 0 1 5.28-7.54l53.63 37.55a7.67 7.67 0 0 0 4.73 1.38l14.4-.61a41.63 41.63 0 0 1 10.24-16.17zm-92.59-4.27c-3.51 5.04-11.06-.23-7.55-5.27l1.44-2.07-7.41-5.19a16.88 16.88 0 0 1-4.21-23.42l13.36-19.35a16.88 16.88 0 0 1 23.49-4.3l7.54 5.3 1.51-2.17c3.52-5.04 11.07.23 7.56 5.27l-3.77 5.4c-.2.4-.46.77-.77 1.1l-26.76 38.35c-.19.37-.43.72-.72 1.03zm21.4-46.76l-7.48-5.23a7.68 7.68 0 0 0-10.71 1.93l-13.36 19.34a7.67 7.67 0 0 0 1.9 10.65l7.41 5.18zm60.95 51.32a4.6 4.6 0 0 1-5.28 7.54l-46.88-32.82a4.6 4.6 0 0 1 5.29-7.55zm-9.83 12.4a4.6 4.6 0 0 1-5.28 7.55l-46.3-32.42a4.6 4.6 0 1 1 5.28-7.54zm45.25-199.72l-8.7-1.86-13.5 2.38c-.7.12-1.41-.03-1.99-.44l-51.47-36.03a9.78 9.78 0 0 1-2.46-13.55l7.7-11.15a9.69 9.69 0 0 1 13.5-2.44l23.03 16a2.65 2.65 0 0 1 .65 3.7l-3.6 5.15a9.72 9.72 0 0 1-13.52 2.4l-14.38-10.06a2.65 2.65 0 0 1 3.04-4.34l14.37 10.07a4.42 4.42 0 0 0 6.15-1.1l2.08-2.98-20.84-14.49a4.4 4.4 0 0 0-6.12 1.1l-7.7 11.15a4.49 4.49 0 0 0 1.14 6.2l50.57 35.4 12.94-2.28c.34-.06.68-.05 1.01.02l2.57.55-.85-1.21a2.65 2.65 0 0 1-.45-1.07l-2.54-14.4-19.67-13.79a2.65 2.65 0 0 1 3.04-4.34l20.57 14.41c.57.4.97 1.02 1.09 1.71l2.62 14.9 4.44 6.27a2.65 2.65 0 0 1-2.72 4.12zm-15.47-21.64a2.65 2.65 0 1 1 4.35 3.01l-7.16 10.38a2.65 2.65 0 0 1-4.36-3.01zm482.18 127.32l-7.56-1.61-11.75 2.07a2.3 2.3 0 0 1-1.72-.38l-44.72-31.32a8.5 8.5 0 0 1-2.14-11.77l6.7-9.69a8.42 8.42 0 0 1 11.72-2.12l20.01 13.9a2.3 2.3 0 0 1 .57 3.21l-3.14 4.48a8.44 8.44 0 0 1-11.74 2.1l-12.5-8.75a2.3 2.3 0 1 1 2.65-3.77l12.49 8.74a3.84 3.84 0 0 0 5.33-.96l1.81-2.58-18.1-12.6a3.82 3.82 0 0 0-5.32.97l-6.7 9.69a3.9 3.9 0 0 0 1 5.38l43.94 30.77 11.25-1.98c.3-.05.6-.05.88.01l2.23.48-.74-1.05a2.3 2.3 0 0 1-.39-.93l-2.2-12.52-17.1-11.98a2.3 2.3 0 0 1 2.64-3.77l17.88 12.52c.5.35.84.89.94 1.49l2.28 12.95 3.86 5.44a2.3 2.3 0 0 1-2.36 3.58zm-13.45-18.8a2.3 2.3 0 0 1 3.79 2.62l-6.23 9.01a2.3 2.3 0 1 1-3.8-2.61zm-817.02 256.4l2.62-14.83c.12-.7.5-1.3 1.08-1.7l20.48-14.35a2.64 2.64 0 1 1 3.03 4.32l-19.59 13.72-2.53 14.34c-.07.39-.22.75-.44 1.07l-.86 1.2 2.56-.54c.33-.07.68-.08 1.01-.02l12.88 2.27 50.35-35.25c2-1.4 2.51-4.18 1.14-6.17l-7.67-11.1a4.37 4.37 0 0 0-6.09-1.1l-20.75 14.42 2.08 2.97a4.4 4.4 0 0 0 6.11 1.1l14.31-10.02a2.64 2.64 0 0 1 3.03 4.32l-14.31 10.02a9.67 9.67 0 0 1-13.46-2.4l-3.6-5.13a2.64 2.64 0 0 1 .66-3.68l22.92-15.93a9.65 9.65 0 0 1 13.44 2.43l7.67 11.1a9.74 9.74 0 0 1-2.45 13.49l-51.24 35.88c-.58.4-1.29.56-1.98.43l-13.45-2.37-8.66 1.85a2.64 2.64 0 0 1-2.7-4.1zm20.13 2.76c-1.18.81-2.8.53-3.63-.63l-7.14-10.33a2.64 2.64 0 0 1 4.34-3l7.14 10.33c.79 1.2.48 2.8-.7 3.63zm-98.68-175.25l8.35-1.11a4.49 4.49 0 0 0 2.59-1.28l27.07-27.07a2.7 2.7 0 0 1 3.8 3.81l-27.07 27.07a9.87 9.87 0 0 1-5.68 2.8l-22.72 3.02a2.7 2.7 0 0 1-2.95-3.4l6.67-23.35a9.86 9.86 0 0 1 2.52-4.27l25.57-25.57a2.7 2.7 0 0 1 3.8 3.8l-25.57 25.58c-.54.54-.93 1.2-1.14 1.94l-2.79 9.76a24.34 24.34 0 0 1 7.55 8.27zm44.93-33.1l-19.3-19.37c-.21-.16-.4-.35-.56-.56l-2.71-2.72c-2.54-2.55 1.28-6.35 3.81-3.8l1.09 1.09 3.81-3.81a9.87 9.87 0 0 1 13.96.09l9.66 9.78a9.87 9.87 0 0 1-.04 13.92l-3.75 3.74 1.04 1.05c2.54 2.54-1.28 6.34-3.8 3.8l-2.69-2.69a2.8 2.8 0 0 1-.52-.52zm5.91-9.19a4.49 4.49 0 0 0 .02-6.33l-9.66-9.78a4.5 4.5 0 0 0-6.37-.02l-3.77 3.77 16.04 16.1zm-23.4-.98a2.7 2.7 0 0 1 1.2 4.5l-23.66 23.67a2.7 2.7 0 1 1-3.81-3.8l23.66-23.67a2.7 2.7 0 0 1 2.6-.7zm6.62 6.44a2.7 2.7 0 0 1 1.2 4.5l-23.36 23.38a2.7 2.7 0 0 1-3.81-3.81l23.37-23.37a2.7 2.7 0 0 1 2.6-.7zm407.14-79.06l7.16-.95c.84-.11 1.62-.5 2.21-1.1l23.2-23.2a2.3 2.3 0 0 1 3.27 3.26l-23.2 23.2a8.46 8.46 0 0 1-4.87 2.41l-19.48 2.58a2.3 2.3 0 0 1-2.52-2.92l5.71-20a8.46 8.46 0 0 1 2.16-3.66l21.91-21.92a2.3 2.3 0 0 1 3.27 3.27l-21.92 21.91c-.46.47-.8 1.04-.98 1.67l-2.39 8.36a20.86 20.86 0 0 1 6.47 7.09zm38.51-28.37l-16.54-16.6c-.19-.14-.35-.3-.48-.48l-2.33-2.34c-2.17-2.18 1.1-5.43 3.27-3.25l.93.93 3.27-3.26a8.46 8.46 0 0 1 11.97.07l8.28 8.39a8.46 8.46 0 0 1-.04 11.93l-3.21 3.2.9.9c2.16 2.18-1.1 5.44-3.28 3.26l-2.3-2.3a2.26 2.26 0 0 1-.44-.45zm5.06-7.88c1.5-1.5 1.5-3.91.02-5.42l-8.28-8.38a3.85 3.85 0 0 0-5.45-.02l-3.24 3.23 13.75 13.8zm-22.29-.24a2.3 2.3 0 0 1 3.27 3.27l-20.28 20.28a2.3 2.3 0 0 1-3.27-3.27zm7.32 4.85a2.3 2.3 0 0 1 1.63 3.94l-20.03 20.03a2.3 2.3 0 0 1-3.27-3.27l20.03-20.03a2.3 2.3 0 0 1 1.64-.67zm410.87-47.63a9.46 9.46 0 0 1 4.52 5.68l3.33 11.65a9.53 9.53 0 0 1 7.18-1.61 9.46 9.46 0 0 1 9.88-7.67l-5.65-19.72a9.47 9.47 0 1 1 18.21-5.22l10 34.88a3.16 3.16 0 1 1-6.07 1.74l-10-34.88a3.15 3.15 0 1 0-6.07 1.74l8.7 30.34c1.16 4.05-4.91 5.8-6.07 1.74l-.58-2a3.15 3.15 0 1 0-6.07 1.74l1.15 4.03c1.16 4.05-4.9 5.79-6.07 1.74a3.14 3.14 0 0 0-3.9-2.17 3.15 3.15 0 0 0-2.17 3.91l.58 2.02c1.16 4.05-4.91 5.8-6.07 1.75l-.58-2.03-5.8-20.24a3.14 3.14 0 0 0-3.91-2.16 3.14 3.14 0 0 0-2.17 3.9l14.52 50.63a13.68 13.68 0 0 0 16.92 9.36l14.29-4.1c4.44-1.28 6.47-2.49 10.04-6.51 2.04-2.3 4.33-7.3 6.69-14.86a5.26 5.26 0 0 0-2.02-5.88l-4.43-3.09a5.27 5.27 0 0 0-3.37-.94l-17.93 1.25a1.7 1.7 0 0 0-1.58 1.8 3.4 3.4 0 0 0 3.02 3.03l10.08 1.02a7.38 7.38 0 0 1 5.3 3.13l2.48 3.57a3.16 3.16 0 0 1-5.2 3.6l-2.47-3.57a1.03 1.03 0 0 0-.75-.45l-10.08-1.02a9.69 9.69 0 0 1-8.63-8.37l-.05-.5a8.01 8.01 0 0 1 7.44-8.55l17.93-1.23c2.64-.19 5.26.54 7.43 2.05l4.42 3.08a11.59 11.59 0 0 1 4.44 12.94c-2.6 8.36-5.2 14.04-8 17.19-4.4 4.95-7.47 6.79-13.02 8.38l-14.29 4.1a20 20 0 0 1-24.73-13.7l-14.52-50.62a9.46 9.46 0 0 1 13.7-10.9zm-91.3-171.27c-7.78 2.38-15.3.65-22.23-3.87a40.54 40.54 0 0 1-8.78-7.81c-.26-.33-.4-.73-.43-1.14a31.44 31.44 0 0 1 1.94-11.28c2.81-7.55 8.36-13.29 17.24-16 8.87-2.72 16.71-1.07 23.3 3.6a31.79 31.79 0 0 1 7.99 8.23c.22.37.32.79.29 1.21a40.98 40.98 0 0 1-2.98 11.4c-3.26 7.63-8.56 13.28-16.34 15.66zm-1.19-3.88c6.5-1.99 10.97-6.75 13.8-13.37a36.95 36.95 0 0 0 2.59-9.46 27.72 27.72 0 0 0-6.5-6.48c-5.62-3.98-12.18-5.36-19.77-3.03-7.6 2.32-12.23 7.11-14.63 13.54a27.46 27.46 0 0 0-1.7 9 36.6 36.6 0 0 0 7.39 6.41c6 3.91 12.33 5.37 18.82 3.39zm16.39-22.83l.36.55-.29-1.21-.07.66zm-42.6 13.03l-.42-.5.43 1.13-.01-.63zm23.75-2.89a4.06 4.06 0 1 1-2.52-7.72 4.06 4.06 0 0 1 2.52 7.72zm-13.48-.12a2.03 2.03 0 0 1 3.89-1.19 8.8 8.8 0 1 0 5.83-10.98 2.03 2.03 0 0 1-1.18-3.88 12.85 12.85 0 1 1-8.54 16.05zm-549.03 539.05c-12.27 1.94-23.29-2.28-32.8-10.58a61.97 61.97 0 0 1-11.62-13.68 3.1 3.1 0 0 1-.4-1.82c.08-1.08.36-2.87.93-5.18.97-4 2.44-7.85 4.4-11.46 5.85-10.82 15.47-18.32 29.47-20.54 14-2.22 25.5 1.94 34.49 10.4a48.5 48.5 0 0 1 7.8 9.52 36.35 36.35 0 0 1 2.52 4.63c.26.6.32 1.26.18 1.9a62.51 62.51 0 0 1-6.94 16.62c-6.55 10.83-15.76 18.24-28.03 20.19zm-.97-6.12c10.25-1.63 18.02-7.88 23.7-17.29a56.4 56.4 0 0 0 5.94-13.75 42.33 42.33 0 0 0-8.45-11.19c-7.66-7.21-17.28-10.69-29.27-8.79-11.98 1.9-20.01 8.17-25 17.37a41.93 41.93 0 0 0-4.48 13.25 55.8 55.8 0 0 0 9.81 11.27c8.24 7.2 17.51 10.75 27.75 9.13zm29.64-31.04l.43.9-.18-1.9-.25 1zm-67.2 10.64c-.22-.34-.4-.62-.53-.85l.4 1.82.13-.97zm36.53.69a6.2 6.2 0 1 1-1.94-12.25 6.2 6.2 0 0 1 1.94 12.25zm-20.35-3.06a3.1 3.1 0 0 1 6.12-.97 13.43 13.43 0 1 0 11.16-15.36 3.1 3.1 0 1 1-.97-6.12 19.63 19.63 0 1 1-16.31 22.45zm57.88-126.79c7.92-8.59 18.78-6.68 23.26 4.1l24.07 57.94c4.56 10.96-1.98 19.11-13.7 17.04l-69.14-12.19c-11.7-2.06-15.05-11.96-7-20.7zm-37.84 50.5c-4.64 5.04-3.32 8.94 3.44 10.13l69.14 12.2c6.77 1.19 9.35-2.03 6.72-8.35l-24.07-57.93c-2.7-6.5-7.94-7.42-12.7-2.24zm41.77-4.7a3.18 3.18 0 0 1-2.6-3.62l4.8-27.13a3.18 3.18 0 0 1 6.25 1.1l-4.78 27.14a3.18 3.18 0 0 1-3.67 2.51zm-5.65 10.9a4.24 4.24 0 1 1 7.97-2.9 4.24 4.24 0 0 1-7.97 2.9zm546.84-395.13a2.74 2.74 0 0 1-1.14 5.36l-8.94-1.9a2.74 2.74 0 0 0-1.14 5.36l25.02 5.32a2.74 2.74 0 0 1 1.83 4l-8.33 15.08c-.39.7-.67 1.47-.84 2.26l-.45 2.1c-.12.56.24 1.11.8 1.23l.78.17a4 4 0 0 0 4.17-1.7l3.14-4.65 12.35-14.19a2.74 2.74 0 0 1 2.64-.88l9.48 2.02c.44.09.88-.15 1.04-.56l8.3-21.13a2.74 2.74 0 0 1 5.1 2l-8.3 21.13a6.4 6.4 0 0 1-7.28 3.92l-7.9-1.68-11.09 12.69-2.93 4.38a9.5 9.5 0 0 1-9.86 4l-.78-.16a6.51 6.51 0 0 1-5.02-7.73l.45-2.1c.28-1.32.75-2.59 1.4-3.77l6.54-11.84-21.4-4.54a8.22 8.22 0 0 1-.4-16 8.22 8.22 0 0 1 5.85-9.96 8.23 8.23 0 0 1 7.5-10.22 8.2 8.2 0 0 1 9.82-9.41l18.96 4.03a13.7 13.7 0 0 1 5.77 2.75l5.31 4.29c1 .81 2.2 1.38 3.46 1.65l4.68 1a2.74 2.74 0 1 1-1.14 5.35l-4.68-.99a13.72 13.72 0 0 1-5.77-2.75l-5.3-4.3c-1.01-.8-2.2-1.37-3.47-1.64l-18.96-4.03a2.74 2.74 0 0 0-1.13 5.36l3.57.76a2.74 2.74 0 0 1-1.14 5.36l-8.94-1.9a2.74 2.74 0 0 0-1.14 5.36l5.37 1.14a2.74 2.74 0 0 1-1.14 5.36l-8.94-1.9a2.74 2.74 0 0 0-1.14 5.36zm-459.53 416.63a2.78 2.78 0 0 1 .55-3.9l12.57-9.47a2.78 2.78 0 0 1 2.06-.53l29.4 4.13a2.78 2.78 0 0 1 1.29 4.98l-28.89 21.76a2.78 2.78 0 0 1-3.35-4.44l23.53-17.72-21.61-3.04-9.43 7.1 4.64 6.17a2.78 2.78 0 0 1-4.44 3.34zm10.82 31.27l6.32 8.39a2.78 2.78 0 0 1-.55 3.9l-12.57 9.47c-.6.44-1.33.63-2.06.53l-29.4-4.13a2.78 2.78 0 0 1-1.29-4.98l28.54-21.5a2.78 2.78 0 0 1 3.35 4.44l-23.17 17.46 21.6 3.04 9.43-7.1-4.64-6.17a2.78 2.78 0 0 1 4.44-3.35zm-1.73-15.12a3.71 3.71 0 1 1-1.04 7.35 3.71 3.71 0 0 1 1.04-7.35zm-24.24 11.7l-9.48-12.57a2.78 2.78 0 0 1-.53-2.07l4.13-29.4a2.78 2.78 0 0 1 4.98-1.28l21.45 28.46a2.79 2.79 0 0 1-4.45 3.35l-17.4-23.1-3.04 21.61 7.1 9.43 6.17-4.64a2.78 2.78 0 0 1 3.35 4.44l-8.39 6.32a2.78 2.78 0 0 1-3.9-.55zm57.45-1.4l-4.13 29.39a2.78 2.78 0 0 1-4.98 1.29l-21.89-29.06a2.78 2.78 0 0 1 4.44-3.35l17.85 23.7 3.04-21.6-7.1-9.42-6.24 4.78a2.78 2.78 0 0 1-3.39-4.42l8.48-6.49a2.78 2.78 0 0 1 3.91.54l9.48 12.57c.44.6.63 1.33.53 2.06zm100.01-316.08a3.87 3.87 0 1 1 2.13 7.43l-12.39 3.56a3.87 3.87 0 0 0 2.13 7.43l34.67-9.94a3.86 3.86 0 0 1 4.93 3.77l-.38 24.29a11.6 11.6 0 0 0 .45 3.38l.83 2.9a1.46 1.46 0 0 0 1.8 1l1.09-.3a5.66 5.66 0 0 0 4.07-4.87l.83-7.88 6-25.85a3.86 3.86 0 0 1 2.7-2.84l13.13-3.77c.61-.17 1-.76.93-1.38l-3.65-31.82a3.87 3.87 0 0 1 7.68-.88l3.65 31.82a9.02 9.02 0 0 1-6.48 9.7l-10.95 3.14-5.4 23.14-.75 7.4a13.4 13.4 0 0 1-9.63 11.52l-1.08.31a9.19 9.19 0 0 1-11.37-6.3l-.83-2.91a19.33 19.33 0 0 1-.75-5.63l.3-19.07-29.66 8.5a11.6 11.6 0 0 1-11.1-19.64 11.6 11.6 0 0 1 .7-16.28 11.6 11.6 0 0 1 2.58-17.7 11.6 11.6 0 0 1 6-18.22l26.27-7.55c2.93-.84 6.02-.98 9-.4l9.46 1.84c1.8.34 3.65.26 5.4-.24l6.49-1.86a3.87 3.87 0 0 1 2.13 7.43l-6.49 1.86c-2.92.84-6.01.98-9 .4l-9.46-1.84a11.6 11.6 0 0 0-5.4.24l-26.28 7.54a3.87 3.87 0 1 0 2.13 7.43l4.96-1.42a3.87 3.87 0 0 1 2.13 7.43l-12.4 3.55a3.87 3.87 0 0 0 2.14 7.43l7.43-2.13a3.87 3.87 0 0 1 2.14 7.43l-12.4 3.55a3.87 3.87 0 0 0 2.13 7.44zm-60.78 155a2.74 2.74 0 0 1-1.14 5.36l-8.94-1.9a2.74 2.74 0 0 0-1.14 5.36l25.02 5.32a2.74 2.74 0 0 1 1.83 4l-8.33 15.08c-.39.7-.67 1.47-.84 2.26l-.45 2.1c-.12.56.24 1.11.8 1.23l.78.17a4 4 0 0 0 4.17-1.7l3.14-4.65 12.35-14.19a2.74 2.74 0 0 1 2.64-.88l9.48 2.02c.44.09.88-.15 1.04-.56l8.3-21.13a2.74 2.74 0 0 1 5.1 2l-8.3 21.13a6.4 6.4 0 0 1-7.28 3.92l-7.9-1.68-11.09 12.69-2.93 4.38a9.5 9.5 0 0 1-9.86 4l-.78-.16a6.51 6.51 0 0 1-5.02-7.73l.45-2.1c.28-1.32.75-2.59 1.4-3.77l6.54-11.84-21.4-4.54a8.22 8.22 0 0 1-.4-16 8.22 8.22 0 0 1 5.85-9.96 8.23 8.23 0 0 1 7.5-10.22 8.2 8.2 0 0 1 9.82-9.41l18.96 4.03a13.7 13.7 0 0 1 5.77 2.75l5.31 4.29c1 .81 2.2 1.38 3.46 1.65l4.68 1a2.74 2.74 0 0 1-1.14 5.35l-4.68-.99a13.72 13.72 0 0 1-5.77-2.75l-5.3-4.3c-1.01-.8-2.2-1.37-3.47-1.64l-18.96-4.03a2.74 2.74 0 0 0-1.13 5.36l3.57.76a2.74 2.74 0 0 1-1.14 5.36l-8.94-1.9a2.74 2.74 0 0 0-1.14 5.36l5.37 1.14a2.74 2.74 0 0 1-1.14 5.36l-8.94-1.9a2.74 2.74 0 0 0-1.14 5.36zm251.88-141.84a3.37 3.37 0 0 0 3.35 4.78l11.22-.98a3.38 3.38 0 0 1 .59 6.73l-6.73.59a3.38 3.38 0 0 0 .58 6.72l11.22-.98a3.38 3.38 0 0 1 .59 6.72l-4.49.4a3.38 3.38 0 1 0 .6 6.72l23.77-2.08c1.6-.14 3.13-.65 4.48-1.5l7.13-4.45a16.88 16.88 0 0 1 7.47-2.5l5.86-.5a3.37 3.37 0 1 1 .6 6.72l-5.87.5c-1.6.15-3.13.66-4.48 1.5l-7.14 4.46a16.89 16.89 0 0 1-7.46 2.5l-23.78 2.07a10.13 10.13 0 0 1-10.59-12.98 10.13 10.13 0 0 1-7.64-13.62 10.12 10.12 0 0 1-5.66-13.06 10.12 10.12 0 0 1 2.9-19.48l26.84-2.35-6.22-15.45a16.9 16.9 0 0 1-1.15-4.83l-.23-2.63a8.02 8.02 0 0 1 7.3-8.69l.97-.09c4.77-.41 9.3 2.11 11.46 6.38l2.92 5.8 11.64 17.17 9.92-.86a7.87 7.87 0 0 1 8.31 5.88l6.98 27.07a3.38 3.38 0 1 1-6.53 1.69l-6.98-27.08a1.12 1.12 0 0 0-1.2-.84l-11.88 1.04c-1.22.1-2.4-.45-3.1-1.47l-12.97-19.2-3.14-6.16a4.94 4.94 0 0 0-4.84-2.7l-.98.1a1.27 1.27 0 0 0-1.16 1.37l.23 2.64c.09.99.32 1.97.7 2.9l7.9 19.67a3.37 3.37 0 0 1-2.83 4.62l-31.37 2.74a3.38 3.38 0 0 0 .58 6.73l11.22-.98a3.37 3.37 0 0 1 .59 6.72l-6.73.59c-1.2.1-2.26.84-2.77 1.94zm-134.68 242.18a4.6 4.6 0 1 1-1.43-9.07l15.13-2.4a4.6 4.6 0 1 0-1.44-9.08l-42.34 6.7a4.6 4.6 0 0 1-5.27-5.16l3.97-28.6c.19-1.34.17-2.71-.04-4.05l-.56-3.56a1.74 1.74 0 0 0-1.99-1.44l-1.32.21a6.73 6.73 0 0 0-5.5 5.16l-2.13 9.18-10.81 29.62a4.6 4.6 0 0 1-3.6 2.96l-16.05 2.55c-.74.11-1.29.75-1.3 1.5l-.3 38.06a4.6 4.6 0 0 1-9.2-.07l.31-38.07a10.72 10.72 0 0 1 9.05-10.5l13.38-2.12 9.72-26.53 1.96-8.62a15.92 15.92 0 0 1 13.03-12.2l1.32-.2a10.92 10.92 0 0 1 12.5 9.08l.57 3.55c.35 2.24.37 4.51.06 6.75l-3.12 22.46 36.23-5.74a13.78 13.78 0 0 1 10.24 24.78 13.78 13.78 0 0 1-3.18 19.11 13.8 13.8 0 0 1-5.6 20.52 13.78 13.78 0 0 1-9.71 20.63l-32.1 5.1c-3.58.56-7.24.27-10.68-.84l-10.9-3.54a13.79 13.79 0 0 0-6.4-.5l-7.92 1.26a4.6 4.6 0 1 1-1.44-9.08l7.92-1.25c3.58-.57 7.24-.28 10.68.83l10.9 3.54c2.06.67 4.26.84 6.4.5l32.1-5.09a4.6 4.6 0 0 0-1.44-9.07l-6.05.96a4.6 4.6 0 1 1-1.44-9.08l15.14-2.4a4.6 4.6 0 1 0-1.44-9.07l-9.08 1.43a4.6 4.6 0 0 1-1.44-9.07l15.14-2.4a4.6 4.6 0 0 0-1.44-9.08zm397.91-323.2a3.38 3.38 0 0 1-1.05-6.66l11.12-1.76a3.38 3.38 0 1 0-1.06-6.67l-31.1 4.93a3.37 3.37 0 0 1-3.87-3.8l2.91-21c.14-1 .13-2-.03-2.98l-.41-2.61a1.27 1.27 0 0 0-1.46-1.06l-.97.15c-2 .32-3.6 1.82-4.04 3.8l-1.56 6.73-7.95 21.76a3.37 3.37 0 0 1-2.64 2.18l-11.79 1.87c-.54.08-.94.55-.95 1.1l-.22 27.96a3.38 3.38 0 1 1-6.75-.06l.22-27.96a7.87 7.87 0 0 1 6.65-7.71l9.83-1.56 7.14-19.48 1.43-6.33a11.69 11.69 0 0 1 9.58-8.96l.97-.16a8.02 8.02 0 0 1 9.18 6.67l.41 2.61c.26 1.65.28 3.32.05 4.96l-2.3 16.5 26.61-4.21a10.13 10.13 0 0 1 7.53 18.2 10.12 10.12 0 0 1-2.33 14.04 10.13 10.13 0 0 1-4.12 15.07 10.13 10.13 0 0 1-7.13 15.16l-23.58 3.73c-2.63.41-5.32.2-7.85-.62l-8-2.6c-1.51-.49-3.13-.61-4.7-.36l-5.82.92a3.38 3.38 0 0 1-1.06-6.67l5.82-.92c2.63-.42 5.32-.2 7.85.62l8 2.6c1.51.48 3.13.61 4.7.36l23.58-3.73a3.38 3.38 0 1 0-1.06-6.67l-4.44.7a3.38 3.38 0 0 1-1.06-6.66l11.12-1.77a3.38 3.38 0 1 0-1.05-6.66l-6.68 1.05a3.38 3.38 0 1 1-1.05-6.66l11.11-1.76a3.38 3.38 0 1 0-1.05-6.67zm-247.28-61.5a2.88 2.88 0 0 1-4.06 4.1c-8.03-7.97-11.06-17.41-9.82-27.7 1.02-8.55 4.87-17.12 10.5-25.34a86.24 86.24 0 0 1 8.1-10.06c.9-.9 2.28-1.11 3.4-.51 2.52 1.33 5.75 4.55 8.44 10.28.4.88.8 1.8 1.15 2.76l.1-.17c2.5-4.27 4.41-9 5.82-13.83a56.4 56.4 0 0 0 1.59-6.75 2.88 2.88 0 0 1 4.4-2c2.16 1.37 4.97 4.38 7.34 9.43 3.72 7.9 5.02 18.4 3.06 31.8a27.38 27.38 0 0 0 2.37-4.63 58.06 58.06 0 0 0 2.9-9.15 2.88 2.88 0 0 1 5.37-.72c.44.87.86 1.75 1.24 2.64a63.49 63.49 0 0 1 2.45 6.7c2.62 8.63 3.29 17.1.97 24.71-2.58 8.46-8.69 15.05-19.05 19.24-11.3 2.93-19.27.76-23.9-5.3-3.05-4.02-4.27-9.69-3.75-12.96a31.95 31.95 0 0 1 6.15-14.11 31.33 31.33 0 0 1 4.81-5.26 2.88 2.88 0 0 1 4.14.49 25.89 25.89 0 0 1 3.06 5.62 25.05 25.05 0 0 1 1.77 13.51 2.88 2.88 0 0 1-5.7-.9c.56-3.51-.02-7.05-1.4-10.43-.2-.46-.4-.92-.62-1.37-.5.58-.98 1.17-1.43 1.79a26.3 26.3 0 0 0-5.08 11.56c-.28 1.79.6 5.86 2.65 8.56 3.1 4.08 8.68 5.6 17.49 3.34 8.4-3.43 13.27-8.68 15.34-15.46 1.93-6.33 1.35-13.72-.97-21.34l-.3-1a54 54 0 0 1-.8 2.05c-3.16 7.59-6.99 11.93-12.37 10.33a2.89 2.89 0 0 1-2-3.34c3.05-15.01 2.05-26.1-1.62-33.92-.62-1.33-1.3-2.5-2.01-3.53l-.56 2.01a67.92 67.92 0 0 1-6.37 15.12 50.1 50.1 0 0 1-3.87 5.73 2.88 2.88 0 0 1-5.09-1.17 36.09 36.09 0 0 0-2.5-7.6 21.63 21.63 0 0 0-4.25-6.26 78.5 78.5 0 0 0-5.7 7.37c-5.16 7.51-8.65 15.28-9.54 22.75-1.03 8.58 1.43 16.25 8.15 22.93zm-585.81 354.5a3.67 3.67 0 1 1-4.19 6.03c-11.82-8.2-17.7-19.37-18.43-32.54-.6-10.94 2.33-22.52 7.57-34.06a109.93 109.93 0 0 1 7.2-13.3l.73-1.1a3.67 3.67 0 0 1 4.15-1.4c3.44 1.13 8.2 4.44 12.83 11.03.71 1 1.4 2.08 2.06 3.2l.09-.23a79.18 79.18 0 0 0 4.23-18.62c.43-3.9.53-6.98.5-8.81a3.67 3.67 0 0 1 5.07-3.49c3 1.25 7.2 4.4 11.28 10.2 6.4 9.08 10.36 21.95 10.85 39.17.7-1.6 1.38-3.72 1.96-6.32a74.05 74.05 0 0 0 1.61-12.1 3.67 3.67 0 0 1 6.57-2.09 80.7 80.7 0 0 1 6.7 10.9c5.18 10.22 7.88 20.69 6.66 30.73-1.37 11.17-7.56 20.77-19.62 28.31-13.5 6.17-23.98 5.21-31.1-1.36-4.72-4.35-7.5-11.19-7.58-15.4a40.66 40.66 0 0 1 4.6-19.04 39.84 39.84 0 0 1 4.86-7.65 3.67 3.67 0 0 1 5.29-.3c1.33 1.22 3.2 3.38 5.08 6.36 3.15 4.98 5.1 10.54 5.2 16.54a3.67 3.67 0 1 1-7.34.12c-.08-4.51-1.58-8.82-4.07-12.75-.33-.54-.7-1.07-1.06-1.58-.5.83-.97 1.68-1.4 2.55a33.46 33.46 0 0 0-3.82 15.62c.04 2.3 2.04 7.21 5.21 10.14 4.8 4.42 12.11 5.09 22.65.31 9.78-6.15 14.72-13.8 15.81-22.76 1.02-8.35-1.34-17.48-5.93-26.52l-.6-1.18c-.17.93-.36 1.85-.56 2.74-2.27 10.2-6.1 16.49-13.2 15.67a3.67 3.67 0 0 1-3.25-3.74c.5-19.48-3.19-33.16-9.52-42.14a31.09 31.09 0 0 0-3.3-3.97c-.07.83-.15 1.72-.26 2.64a86.42 86.42 0 0 1-4.64 20.35c-1 2.76-2.2 5.44-3.58 8.03a3.67 3.67 0 0 1-6.63-.34 45.96 45.96 0 0 0-4.83-8.97 27.53 27.53 0 0 0-6.7-6.9 99.29 99.29 0 0 0-5.52 10.49c-4.8 10.55-7.45 21.05-6.92 30.61.6 10.98 5.38 20.04 15.29 26.93zm660-25a3.67 3.67 0 1 1-4.19 6.03c-11.82-8.2-17.7-19.37-18.43-32.54-.6-10.94 2.33-22.52 7.57-34.06a109.93 109.93 0 0 1 7.2-13.3l.73-1.1a3.67 3.67 0 0 1 4.15-1.4c3.44 1.13 8.2 4.44 12.83 11.03.71 1 1.4 2.08 2.06 3.2l.09-.23a79.18 79.18 0 0 0 4.23-18.62c.43-3.9.53-6.98.5-8.81a3.67 3.67 0 0 1 5.07-3.49c3 1.25 7.2 4.4 11.28 10.2 6.4 9.08 10.36 21.95 10.85 39.17.7-1.6 1.38-3.72 1.96-6.32a74.05 74.05 0 0 0 1.61-12.1 3.67 3.67 0 0 1 6.57-2.09 80.7 80.7 0 0 1 6.7 10.9c5.18 10.22 7.88 20.69 6.66 30.73-1.37 11.17-7.56 20.77-19.62 28.31-13.5 6.17-23.98 5.21-31.1-1.36-4.72-4.35-7.5-11.19-7.58-15.4a40.66 40.66 0 0 1 4.6-19.04 39.84 39.84 0 0 1 4.86-7.65 3.67 3.67 0 0 1 5.29-.3c1.33 1.22 3.2 3.38 5.08 6.36 3.15 4.98 5.1 10.54 5.2 16.54a3.67 3.67 0 1 1-7.34.12c-.08-4.51-1.58-8.82-4.07-12.75-.33-.54-.7-1.07-1.06-1.58-.5.83-.97 1.68-1.4 2.55a33.46 33.46 0 0 0-3.82 15.62c.04 2.3 2.04 7.21 5.21 10.14 4.8 4.42 12.11 5.09 22.65.31 9.78-6.15 14.72-13.8 15.81-22.76 1.02-8.35-1.34-17.48-5.93-26.52l-.6-1.18c-.17.93-.36 1.85-.56 2.74-2.27 10.2-6.1 16.49-13.2 15.67a3.67 3.67 0 0 1-3.25-3.74c.5-19.48-3.19-33.16-9.52-42.14a31.09 31.09 0 0 0-3.3-3.97c-.07.83-.15 1.72-.26 2.64a86.42 86.42 0 0 1-4.64 20.35c-1 2.76-2.2 5.44-3.58 8.03a3.67 3.67 0 0 1-6.63-.34 45.96 45.96 0 0 0-4.83-8.97 27.53 27.53 0 0 0-6.7-6.9 99.29 99.29 0 0 0-5.52 10.49c-4.8 10.55-7.45 21.05-6.92 30.61.6 10.98 5.38 20.04 15.29 26.93zm-246.16-38.26a4.27 4.27 0 0 1-6.02 6.06c-11.9-11.8-16.38-25.8-14.55-41.05 1.51-12.66 7.22-25.36 15.56-37.53a127.78 127.78 0 0 1 10.95-13.8l1.05-1.1a4.27 4.27 0 0 1 5.05-.77c3.71 1.98 8.5 6.74 12.49 15.23.6 1.3 1.18 2.67 1.71 4.1l.15-.26a92.25 92.25 0 0 0 8.62-20.5 83.5 83.5 0 0 0 2.35-10 4.27 4.27 0 0 1 6.52-2.97c3.2 2.04 7.36 6.5 10.88 13.98 5.5 11.7 7.44 27.26 4.52 47.11a40.55 40.55 0 0 0 3.52-6.85 86.3 86.3 0 0 0 3.2-9.3c.55-1.93.92-3.42 1.1-4.25a4.27 4.27 0 0 1 7.95-1.07c.4.75 1.04 2.09 1.83 3.91a93.7 93.7 0 0 1 3.64 9.94c3.89 12.77 4.87 25.33 1.44 36.6-3.82 12.54-12.88 22.3-28.23 28.5-16.73 4.35-28.55 1.13-35.4-7.85-4.53-5.95-6.33-14.35-5.56-19.2 1.22-7.74 4.51-14.74 9.11-20.9a46.43 46.43 0 0 1 7.13-7.8 4.27 4.27 0 0 1 6.13.72 38.4 38.4 0 0 1 4.54 8.33c2.6 6.35 3.71 13.12 2.62 20.02a4.27 4.27 0 0 1-8.44-1.34c.82-5.2-.04-10.43-2.1-15.44-.27-.7-.57-1.37-.9-2.04-.74.86-1.45 1.74-2.12 2.65-3.83 5.13-6.54 10.9-7.53 17.14-.42 2.64.88 8.68 3.92 12.68 4.6 6.04 12.86 8.29 25.91 4.94 12.46-5.07 19.68-12.85 22.74-22.9 2.86-9.38 2-20.33-1.43-31.63-.15-.49-.3-.98-.47-1.47a79.98 79.98 0 0 1-1.18 3.04c-4.66 11.24-10.34 17.67-18.32 15.3a4.27 4.27 0 0 1-2.97-4.95c4.53-22.24 3.06-38.68-2.38-50.25a36.22 36.22 0 0 0-2.99-5.23c-.25.94-.53 1.94-.83 2.98a100.58 100.58 0 0 1-9.44 22.4 74.12 74.12 0 0 1-5.73 8.48 4.27 4.27 0 0 1-7.53-1.72 53.52 53.52 0 0 0-3.72-11.27 32.07 32.07 0 0 0-6.3-9.28 115.9 115.9 0 0 0-8.45 10.92c-7.63 11.13-12.8 22.64-14.13 33.72-1.52 12.7 2.12 24.07 12.1 33.97z"/></defs><g><g transform="translate(-897 -1658)"><use fill="#f8f6ec" xlink:href="#zx8da"/></g></g></svg>