<?xml version="1.0" encoding="UTF-8"?>
<svg width="451px" height="198px" viewBox="0 0 451 198" version="1.1" xmlns="http://www.w3.org/2000/svg" xmlns:xlink="http://www.w3.org/1999/xlink">
    <!-- Generator: Sketch 47.1 (45422) - http://www.bohemiancoding.com/sketch -->
    <title>Artboard</title>
    <desc>Created with Sketch.</desc>
    <defs>
        <path d="M32.1815054,26.2472961 C31.2415662,24.7791729 26.0526411,20.2007031 24.630398,19.5653779 C18.4200019,16.791154 10.9197435,22.072706 10.9197435,29.747258 C10.9197435,32.7473716 9.33880933,34.986389 6.58880774,36.6463036 C5.58394136,37.2528459 4.49586504,37.7327676 3.40697439,38.0950624 C3.02628538,38.221725 2.67441397,38.3241352 2.36162116,38.4039985 C2.25495245,38.4312335 2.19103834,38.4465288 2.08326643,38.4711469 C0.786199666,38.7285107 0.327606734,40.2360163 1.20864136,41.1170509 C6.84211729,46.7505269 21.9097543,46.7216159 28.8924601,41.2409265 C34.2184885,37.0605546 35.4026151,31.2784576 32.1815054,26.2472961 Z M3.41155095,38.9141414 L2.61158135,41.5438344 C2.70343393,41.5246789 2.70343393,41.5246789 2.76529383,41.5109594 C2.91567701,41.4765806 2.99573406,41.4574221 3.13232686,41.4225468 C3.51456708,41.324952 3.93716096,41.2019584 4.3905115,41.0511199 C5.68459113,40.6205548 6.97948502,40.0494114 8.19872418,39.3134726 C11.8033099,37.1377268 14.0351281,33.9768868 14.0351281,29.747258 C14.0351281,24.2687195 19.2695408,20.5827366 23.3597498,22.4098593 C24.2143978,22.7916361 28.9387332,26.9601732 29.5577823,27.9270872 C31.8877763,31.5663846 31.0671246,35.5736315 26.9689504,38.7902671 C21.166355,43.344694 7.86762046,43.3702109 3.41155095,38.9141414 Z M27.137601,33.8398604 C28.1159278,31.4126564 27.2445778,28.9232824 24.558476,27.2020595 C23.834138,26.7379121 22.8706802,26.9488383 22.4065328,27.6731763 C21.9423854,28.3975143 22.1533116,29.3609721 22.8776496,29.8251195 C24.3323721,30.7572888 24.6525072,31.6718882 24.2481054,32.675199 C23.8512668,33.6597454 22.7623552,34.5941988 21.7802186,34.8478285 C20.9472555,35.0629351 20.4463839,35.9125635 20.6614906,36.7455266 C20.8765973,37.5784897 21.7262257,38.0793613 22.5591888,37.8642546 C24.4868609,37.3664473 26.3662007,35.7536851 27.137601,33.8398604 Z M40.3050752,4.23190775 L27.7856457,18.056496 C27.2081751,18.6941683 26.223107,18.7429714 25.5854347,18.1655008 C24.9477623,17.5880301 24.8989592,16.6029621 25.4764299,15.9652897 L37.9958593,2.14070153 C39.3042332,0.695928851 41.5764468,0.494694152 43.1151584,1.68284195 L46.7303951,4.47442141 C48.2762258,5.66806645 48.6457854,7.91607394 47.5691986,9.54756911 L36.8382145,25.8096573 C36.2129423,26.7572154 34.8166262,26.7391111 34.2161319,25.7756599 C34.1193531,25.6203852 33.9060609,25.3135614 33.5840913,24.9065264 C33.0376343,24.2156937 32.3968874,23.5231458 31.6719505,22.8796083 C31.2873669,22.5382076 30.8886452,22.2196963 30.4768533,21.9282309 C29.7525168,21.415547 29.6022013,20.4022195 30.1465205,19.7013452 C30.9460425,18.6718675 30.9460425,18.6718675 33.3446086,15.5834344 C35.7431746,12.4950014 35.7431746,12.4950014 36.5426966,11.4655238 C37.0703769,10.786074 38.0489491,10.6630405 38.7283988,11.1907208 C39.4078486,11.718401 39.530882,12.6969732 39.0032018,13.376423 C38.2036798,14.4059006 38.2036798,14.4059006 35.8051137,17.4943336 C33.4065477,20.5827666 33.4065477,20.5827666 32.6070257,21.6122444 L32.2766929,19.3853587 C32.7845245,19.7448009 33.2723466,20.1344883 33.7401714,20.5497834 C35.2341635,21.8760228 36.2828943,23.2018318 36.8600212,24.1277915 L34.2379386,24.0937941 L44.9689227,7.83170588 C45.1487743,7.55915282 45.0791136,7.13541101 44.8263606,6.94024253 L41.2111238,4.14866306 C40.9590188,3.95399494 40.5216747,3.99272757 40.3050752,4.23190775 Z" id="path-1"></path>
        <path d="M27.4810791,10.2197975 C26.8419124,10.2697194 26.1908545,9.9912231 25.7944197,9.42220419 C23.6070927,6.28264501 20.0339392,4.375 16.1363636,4.375 C9.64074186,4.375 4.375,9.64074186 4.375,16.1363636 C4.375,19.5841176 5.86445657,22.7863434 8.51008092,25.0974057 L28.8273157,45.4603973 C29.5587246,46.1934535 29.5573893,47.3806371 28.8243331,48.112046 C28.0912769,48.843455 26.9040933,48.8421197 26.1726843,48.1090635 L5.95107352,27.8354433 C2.59207223,24.9089095 0.625,20.679844 0.625,16.1363636 C0.625,7.56967405 7.56967405,0.625 16.1363636,0.625 C20.5255071,0.625 24.6073258,2.46293025 27.4999985,5.57731362 C27.7822729,5.88122312 28.0532238,6.19728746 28.3120319,6.52498491 C28.4555924,6.7067582 28.5954166,6.89211088 28.7313647,7.08095391 C28.7784785,7.1463989 28.8251268,7.2122631 28.8713038,7.27854278 L27.3328618,8.35037348 L26.1541616,6.89219278 L26.3212999,6.7570889 C26.4362409,6.66417786 26.5593738,6.58682378 26.6879523,6.52500236 C27.2007603,6.27844076 27.8001897,6.2789485 28.3120319,6.52498491 C28.4503297,6.59146297 28.582233,6.67586607 28.7043056,6.77816381 L28.8692628,6.91639919 L27.6649572,8.35350498 L26.126216,7.28210376 C26.1790643,7.20620325 26.2325307,7.13084725 26.2866063,7.05604131 C26.4168922,6.8758093 26.5507149,6.69877037 26.6879523,6.52500236 C26.9467635,6.19729919 27.2177187,5.88122898 27.4999985,5.57731362 C30.3926326,2.46297123 34.4744502,0.625 38.8636364,0.625 C47.4303259,0.625 54.375,7.56967405 54.375,16.1363636 C54.375,20.3167335 52.7110837,24.2381531 49.8102764,27.1260562 L35.4369924,41.5013261 C34.7048099,42.2336097 33.5176256,42.2336918 32.785342,41.5015093 C32.0530583,40.7693268 32.0529763,39.5821425 32.7851588,38.8498589 L38.6409412,32.9932674 C45.0290674,26.6042586 45.0290674,26.6042586 47.1614916,24.4715468 C49.3654882,22.2773493 50.625,19.3090063 50.625,16.1363636 C50.625,9.64074186 45.3592581,4.375 38.8636364,4.375 C34.9648974,4.375 31.3908051,6.28379422 29.2036984,9.4249062 C28.7994249,10.0055218 28.1311499,10.2830268 27.4810791,10.2197975 C27.1190415,10.1845838 26.7626502,10.0436879 26.4606516,9.79061077 L26.2956944,9.6523754 L27.5,8.2152696 L28.6787001,9.67345031 L28.5115619,9.80855419 C28.2046574,10.0566362 27.8447935,10.1913897 27.4810791,10.2197975 Z M12.3365255,18.9076494 C12.774948,19.8457945 12.3698428,20.961723 11.4316978,21.4001455 C10.4935527,21.838568 9.37762418,21.4334628 8.93920167,20.4953178 C8.40544668,19.3531784 8.125,18.1037 8.125,16.8181818 C8.125,12.0170701 12.0170701,8.125 16.8181818,8.125 C18.3050446,8.125 19.7418078,8.5002819 21.0174003,9.20504446 C21.9237938,9.70582523 22.2526078,10.8465653 21.7518271,11.7529588 C21.2510463,12.6593522 20.1103062,12.9881663 19.2039127,12.4873855 C18.4800632,12.0874599 17.6666623,11.875 16.8181818,11.875 C14.0881379,11.875 11.875,14.0881379 11.875,16.8181818 C11.875,17.5521979 12.0338732,18.2600281 12.3365255,18.9076494 Z" id="path-3"></path>
        <path d="M26.4010827,6.64423077 C23.8591212,6.64423077 21.8145442,8.69492308 21.8145442,11.2307692 L21.8145442,16.8365385 L21.8145442,17.0954231 C21.3375442,16.9282692 20.8218135,16.8365385 20.2856981,16.8365385 C19.5579673,16.8365385 18.8689673,17.0057308 18.2594673,17.3053846 C17.5011596,15.8152692 15.9560058,14.7980769 14.1703135,14.7980769 C13.6341981,14.7980769 13.1184673,14.8898077 12.6414673,15.0569615 L12.6414673,5.12557692 C12.6414673,2.5775 10.5928135,0.528846154 8.05492885,0.528846154 C5.51092885,0.528846154 3.46839039,2.58565385 3.46839039,5.12557692 L3.46839039,22.6889615 C3.46839039,23.5328846 4.15331346,24.2178077 4.99723654,24.2178077 C5.84115962,24.2178077 6.52608269,23.5328846 6.52608269,22.6889615 L6.52608269,5.12557692 C6.52608269,4.26942308 7.20489039,3.58653846 8.05492885,3.58653846 C8.90496731,3.58653846 9.583775,4.26534615 9.583775,5.12557692 L9.583775,19.3948077 L9.583775,20.4038462 C9.583775,22.4423077 12.6414673,22.4423077 12.6414673,20.4038462 L12.6414673,19.3948077 C12.6414673,18.5386538 13.320275,17.8557692 14.1703135,17.8557692 C15.0183135,17.8557692 15.6991596,18.5366154 15.6991596,19.3948077 L15.6991596,21.4230769 C15.6991596,23.4615385 18.7568519,23.4615385 18.7568519,21.4230769 C18.7568519,20.5730385 19.4356596,19.8942308 20.2856981,19.8942308 C21.1336981,19.8942308 21.8145442,20.5730385 21.8145442,21.4230769 L21.8145442,22.4423077 C21.8145442,24.4807692 24.8722365,24.4807692 24.8722365,22.4423077 L24.8722365,21.4230769 L24.8722365,11.2307692 C24.8722365,10.3807308 25.5510442,9.70192308 26.4010827,9.70192308 C27.2511212,9.70192308 27.9299288,10.3786923 27.9299288,11.2307692 L27.9299288,36.7237692 C27.9299288,40.3746538 24.9639673,43.3365385 21.3049288,43.3365385 L14.1091596,43.3365385 C11.8709288,43.3365385 10.7681212,43.0409615 8.57065962,41.6466538 C7.31089039,40.8475769 5.57819808,38.8274615 3.47450577,35.623 C2.86704423,34.6955 2.92819808,33.4785385 3.62942885,32.6183077 L5.27650577,30.5920769 C5.64342885,30.1395385 6.15304423,29.8276538 6.721775,29.7053462 L15.2303135,27.8911154 C15.6746981,27.7953077 16.1109288,28.0786538 16.2046981,28.5230385 C16.3270058,29.3221154 15.9091212,30.0498462 15.2038135,30.3311538 L10.6519288,32.1515 C9.68365962,32.5388077 8.93554423,33.3297308 8.59919808,34.3163462 L7.92446731,36.3058846 C7.65131346,37.1049615 8.07939039,37.9733462 8.88050577,38.2444615 C9.67958269,38.5155769 10.5479673,38.0875 10.8190827,37.2884231 L11.4958519,35.3009231 C11.5427365,35.1582308 11.6487365,35.0461154 11.7873519,34.9910769 L16.3392365,33.1707308 C18.3593519,32.3614615 19.5600058,30.2740769 19.2379288,28.1235 C19.2195827,28.0032308 19.2195827,28.0032308 19.1951212,27.885 C18.7486981,25.7894615 16.6878135,24.4542692 14.592275,24.9006923 L6.08373654,26.7169615 C4.83212116,26.984 3.71096731,27.6689231 2.90373654,28.6616538 L1.25665962,30.6878846 C-0.284417307,32.5836538 -0.42099423,35.2581154 0.918275001,37.3006538 C3.24212116,40.8414615 5.211275,43.1367692 6.933775,44.2293846 C9.64085192,45.9457692 11.3123904,46.3942308 14.1091596,46.3942308 L21.3049288,46.3942308 C26.6518135,46.3942308 30.9876212,42.0645385 30.9876212,36.7237692 L30.9876212,11.2307692 C30.9876212,8.68880769 28.9369288,6.64423077 26.4010827,6.64423077" id="path-5"></path>
    </defs>
    <g id="Page-1" stroke="none" stroke-width="1" fill="none" fill-rule="evenodd">
        <g id="Artboard">
            <g id="left">
                <path d="M293.921555,198 C288.236368,179.955321 280.06831,160.78343 269.499358,141.046194 C269.238645,140.559319 268.632605,140.375979 268.14573,140.636692 C267.658855,140.897405 267.475515,141.503445 267.736228,141.99032 C278.137453,161.414329 286.188564,180.266095 291.821931,198 L293.921555,198 Z M45.1269269,198.000025 C27.5042489,176.550214 12.3824438,154.558824 4.61852778e-14,132.894519 L5.68434189e-14,128.823409 C12.8714059,151.796345 28.8708076,175.209699 47.7188172,198 L45.1269063,198 Z M153.183083,-1.0658141e-14 C174.46812,17.4128039 195.609901,38.2334306 215.498844,61.9361505 C218.875387,65.9601573 222.176373,70.0203052 225.398743,74.1118464 C225.740454,74.5457269 225.665735,75.1744678 225.231855,75.5161784 C224.797974,75.8578891 224.169234,75.7831707 223.827523,75.3492902 C220.61795,71.2739979 217.330009,67.2298956 213.966755,63.2217258 C193.553373,38.8940037 171.824834,17.6323725 150.004444,-1.77635684e-15 L153.183083,0 Z" id="Combined-Shape" fill="#DCD8C5" fill-rule="nonzero" opacity="0.300000012"></path>
                <path d="M54.1961095,-6.15418827e-12 C63.2213271,10.056422 70.3223654,22.172799 74.794003,35.763706 C74.9666114,36.2883247 75.5318257,36.5736854 76.0564444,36.401077 C76.5810631,36.2284686 76.8664238,35.6632544 76.6938154,35.1386357 C72.3307922,21.8778468 65.5103822,9.99018723 56.8618906,5.32907052e-14 L54.1961095,5.68434189e-14 Z M2.84217094e-14,166.897645 C32.5186253,161.736471 60.2797897,138.841526 72.9160303,106.462799 C73.1168181,105.948306 73.6966675,105.693998 74.2111601,105.894786 C74.7256528,106.095574 74.9799609,106.675423 74.7791731,107.189916 C61.8468714,140.327261 33.3615145,163.74758 1.95399252e-14,168.922413 L2.84217094e-14,166.897645 Z" id="Combined-Shape" fill="#DCD8C5" fill-rule="nonzero" opacity="0.300000012"></path>
                <path d="M383.590569,198.000007 C408.059146,166.247357 423.463694,129.508793 426.900242,91.1529114 C426.949527,90.6028301 426.543551,90.1169476 425.99347,90.0676623 C425.443389,90.018377 424.957506,90.4243523 424.908221,90.9744336 C421.462943,129.427753 405.852455,166.260962 381.059445,198.000008 L383.590575,198 Z M410.95326,3.37507799e-14 C413.540901,5.5363148 415.855695,11.2360787 417.881132,17.091954 C418.061663,17.6138994 417.784892,18.1833691 417.262946,18.3639001 C416.741001,18.5444311 416.171531,18.26766 415.991,17.7457146 C413.88519,11.6574642 411.462631,5.73940101 408.742282,7.10542736e-15 L410.95326,2.84217094e-14 Z" id="Combined-Shape" fill="#DCD8C5" fill-rule="nonzero" opacity="0.300000012"></path>
                <g id="Icons/oah-1.5/oah-brush" transform="translate(44.000000, 49.000000)">
                    <g id="fills" transform="translate(0.076923, 0.153846)">
                        <mask id="mask-2" fill="white">
                            <use xlink:href="#path-1"></use>
                        </mask>
                        <use id="Combined-Shape" fill="#DCD8C5" fill-rule="nonzero" xlink:href="#path-1"></use>
                    </g>
                </g>
                <g id="Icons/oah-1.5/oah-heart" transform="translate(220.000000, 88.000000)">
                    <g id="lines">
                        <mask id="mask-4" fill="white">
                            <use xlink:href="#path-3"></use>
                        </mask>
                        <use id="Combined-Shape" fill="#DCD8C5" fill-rule="nonzero" xlink:href="#path-3"></use>
                    </g>
                </g>
                <g id="Icons/oah-1.5/oah-pointer-rock" transform="translate(410.000000, 31.000000)">
                    <g id="fills" transform="translate(0.230769, 0.038462)">
                        <mask id="mask-6" fill="white">
                            <use xlink:href="#path-5"></use>
                        </mask>
                        <use id="Page-1" fill="#DCD8C5" xlink:href="#path-5"></use>
                    </g>
                </g>
            </g>
        </g>
    </g>
</svg>