<?xml version="1.0" encoding="UTF-8"?>
<svg width="456px" height="198px" viewBox="0 0 456 198" version="1.1" xmlns="http://www.w3.org/2000/svg" xmlns:xlink="http://www.w3.org/1999/xlink">
    <!-- Generator: Sketch 47.1 (45422) - http://www.bohemiancoding.com/sketch -->
    <title>Artboard</title>
    <desc>Created with Sketch.</desc>
    <defs>
        <path d="M28.2252454,28.5442545 C28.0770413,28.7703377 27.9893449,29.039913 27.9854994,29.3302477 L27.9328213,33.3074393 L27.9326923,39.1277582 C27.9326923,40.4883047 26.8352346,41.5863601 25.471194,41.5863601 L23.528806,41.5863601 C22.1611125,41.5863601 21.0673077,40.4971603 21.0673077,39.1277582 L21.0673077,34.7980769 L24.0000401,34.7980769 L24.0000401,37.3762985 C24.0000401,38.1887943 24.6586981,38.8474523 25.471194,38.8474523 C26.2836898,38.8474523 26.9423478,38.1887943 26.9423478,37.3762985 L26.9423478,33.3269231 C26.9423478,32.5144272 26.2836898,31.8557692 25.471194,31.8557692 L19.5961538,31.8557692 C18.783658,31.8557692 18.125,32.5144272 18.125,33.3269231 L18.125,39.1277582 C18.125,42.1249374 20.5388933,44.5286677 23.528806,44.5286677 L25.471194,44.5286677 C28.4605849,44.5286677 30.875,42.1129379 30.875,39.1277582 L30.875,33.3269231 L30.9237233,29.6573432 C30.9819253,29.5688993 31.0645736,29.442184 31.1689737,29.2803706 C31.399806,28.9225957 31.6565608,28.5173648 31.9328149,28.0722227 C32.7219,26.8007303 33.5110197,25.4613319 34.2491395,24.1132998 C34.7430491,23.21127 35.1976682,22.3346701 35.6048081,21.4925587 C36.969628,18.669621 37.7403846,16.3918207 37.7403846,14.6923077 C37.7403846,6.86331461 31.8399285,0.471153846 24.5,0.471153846 C17.1600715,0.471153846 11.2596154,6.86331461 11.2596154,14.6923077 C11.2596154,16.1949565 11.9548945,18.2860775 13.1849394,20.9470652 C13.4952438,21.6183548 13.8357492,22.3153232 14.2016437,23.0319783 C14.8217257,24.2464949 15.4846038,25.46004 16.1474348,26.6169738 C16.5457082,27.3121374 16.8567047,27.8360203 17.0372116,28.1318433 C17.4604202,28.8254167 18.3657508,29.0445907 19.0593241,28.6213821 C19.7528975,28.1981736 19.9720715,27.292843 19.548863,26.5992696 C19.3817282,26.3253615 19.0843516,25.8244217 18.700431,25.1543102 C18.0596054,24.0357856 17.4188269,22.8626987 16.8221629,21.6940494 C16.4729272,21.0100229 16.1490777,20.3471468 15.8557105,19.712498 C14.8004412,17.4296069 14.2019231,15.6295041 14.2019231,14.6923077 C14.2019231,8.43803965 18.8399952,3.41346154 24.5,3.41346154 C30.1600048,3.41346154 34.7980769,8.43803965 34.7980769,14.6923077 C34.7980769,15.8150256 34.136861,17.7691026 32.9558515,20.2118543 C32.5716272,21.0065682 32.1395922,21.8396213 31.6683812,22.7001964 C30.9581702,23.9972586 30.1955069,25.2917516 29.4328089,26.5207251 C28.9759237,27.2569272 28.6220663,27.8053829 28.4232461,28.1043831 C28.3310235,28.2430742 28.2654277,28.3917076 28.2252454,28.5442545 Z M1.94244824,15.1870023 C1.12995241,15.1870799 0.471231473,14.5284849 0.471153853,13.715989 C0.471076232,12.9034932 1.12967132,12.2447723 1.94216715,12.2446946 L5.8101554,12.2443251 C6.62265123,12.2442475 7.28137216,12.9028426 7.28144978,13.7153384 C7.2815274,14.5278342 6.62293231,15.1865552 5.81043648,15.1866328 L1.94244824,15.1870023 Z M43.1505327,15.1830656 C42.3380369,15.1831432 41.679316,14.5245481 41.6792384,13.7120523 C41.6791607,12.8995565 42.3377558,12.2408355 43.1502517,12.2407579 L47.0575518,12.2403846 C47.8700476,12.240307 48.5287685,12.8989021 48.5288461,13.7113979 C48.5289238,14.5238937 47.8703287,15.1826147 47.0578329,15.1826923 L43.1505327,15.1830656 Z M4.2279327,3.71084048 C3.52425186,3.30465979 3.28308034,2.40493925 3.68926104,1.70125841 C4.09544173,0.997577568 4.99516227,0.756406048 5.69884311,1.16258674 L9.60085432,3.41491696 C10.3045352,3.82109766 10.5457067,4.7208182 10.139526,5.42449904 C9.73334529,6.12817988 8.83362475,6.3693514 8.12994391,5.9631707 L4.2279327,3.71084048 Z M39.3745256,23.9982587 C38.6708448,23.592078 38.4296733,22.6923575 38.835854,21.9886766 C39.2420346,21.2849958 40.1417552,21.0438243 40.845436,21.450005 L44.7720673,23.7165465 C45.4757481,24.1227272 45.7169197,25.0224477 45.310739,25.7261285 C44.9045583,26.4298094 44.0048377,26.6709809 43.3011569,26.2648002 L39.3745256,23.9982587 Z M44.7720673,3.71084048 L40.9905012,5.89364704 C39.2916653,6.87425398 37.8207549,4.32600025 39.5195908,3.34539331 L43.3011569,1.16258674 C44.9999927,0.181979802 46.4709031,2.73023354 44.7720673,3.71084048 Z M9.5967327,24.0148491 L5.69884311,26.2648002 C4.00000728,27.2454071 2.52909687,24.6971534 4.2279327,23.7165465 L8.1258223,21.4665953 C9.82465812,20.4859884 11.2955685,23.0342421 9.5967327,24.0148491 Z" id="path-1"></path>
        <path d="M42.4652893,31.5096154 C43.5645483,31.5096154 44.4556739,32.4007409 44.4556739,33.5 C44.4556739,34.5992591 43.5645483,35.4903846 42.4652892,35.4903846 L35.8269231,35.4903846 C34.727664,35.4903846 33.8365385,36.3815102 33.8365385,37.4807692 C33.8365385,38.5800283 34.727664,39.4711538 35.8269231,39.4711538 L38.4807692,39.4711538 L39.1461062,39.4711538 L39.8114433,39.4711538 C40.9107022,39.4711538 41.8018277,40.3622794 41.8018277,41.4615385 C41.8018277,42.5607975 40.9107022,43.4519231 39.8114431,43.4519231 L33.1730769,43.4519231 C32.0738179,43.4519231 31.1826923,44.3430486 31.1826923,45.4423077 C31.1826923,46.5415668 32.0738179,47.4326923 33.1730769,47.4326923 L35.8269231,47.4326923 C36.9261821,47.4326923 37.8173077,48.3238179 37.8173077,49.4230769 C37.8173077,50.522336 36.9261821,51.4134615 35.8269231,51.4134615 L21.7495291,51.4134615 C20.8082822,51.4134615 19.8803675,51.1909474 19.0414853,50.7640722 L14.6216935,48.5150079 C13.2235566,47.8035492 11.6770319,47.4326923 10.1082871,47.4326923 L6.63461538,47.4326923 C5.53535632,47.4326923 4.64423077,48.3238179 4.64423077,49.4230769 C4.64423077,50.522336 5.53535632,51.4134615 6.63461538,51.4134615 L10.1082871,51.4134615 C11.049534,51.4134615 11.9774488,51.6359757 12.8163309,52.0628509 L17.2361228,54.3119151 C18.6342597,55.0233739 20.1807843,55.3942308 21.7495291,55.3942308 L35.8269231,55.3942308 C39.1247003,55.3942308 41.7980769,52.7208541 41.7980769,49.4230769 C41.7980769,48.6466841 41.6499,47.9048998 41.3802834,47.2244614 C43.9170061,46.5355252 45.7825969,44.2163979 45.7825969,41.4615385 C45.7825969,40.5150101 45.5623627,39.6199203 45.1703421,38.8247166 C47.1086843,37.8380428 48.4364431,35.8240787 48.4364431,33.5 C48.4364431,32.5534717 48.2162089,31.6583818 47.8241883,30.8631782 C49.7625304,29.8765043 51.0902892,27.8625403 51.0902892,25.5384615 C51.0902892,22.2406843 48.4169126,19.5673077 45.1191354,19.5673077 L29.2317501,19.5673077 L32.0876762,10.1702698 C32.3728027,9.23209945 32.5177143,8.25694153 32.5177143,7.2764005 L32.5177143,5.71787203 C32.5177143,3.10444801 30.3991155,0.985849234 27.7856915,0.985849234 L27.2059725,0.985849234 C24.3860263,0.985849234 21.8503059,2.70305118 20.803621,5.32155214 L19.3825694,8.87660971 L13.4266031,19.5673077 L7.55594227,19.5673077 C5.28557953,19.5673077 3.34800826,21.2087535 2.97486609,23.4482427 L0.264763524,39.7134787 C0.084096397,40.7977895 0.816644325,41.8232567 1.90095512,42.0039238 C2.98526591,42.1845909 4.01073312,41.452043 4.19140025,40.3677322 L6.90150282,24.1024962 C6.95480884,23.7825692 7.23160474,23.5480769 7.55594227,23.5480769 L14.5961538,23.5480769 C15.3189961,23.5480769 15.9850198,23.1561863 16.336063,22.5243085 L22.9706784,10.5820008 L24.5000207,6.79910195 C24.9424017,5.69239333 26.0141231,4.96661846 27.2059725,4.96661846 L27.7856915,4.96661846 C28.2005974,4.96661846 28.536945,5.30296614 28.536945,5.71787203 L28.536945,7.2764005 C28.536945,7.86472512 28.4499981,8.44981987 28.2789222,9.01272206 L24.6421834,20.9789185 C24.2536166,22.2574449 25.2102918,23.5480769 26.5465604,23.5480769 L45.1191354,23.5480769 C46.2183945,23.5480769 47.10952,24.4392025 47.10952,25.5384615 C47.10952,26.6377206 46.2183945,27.5288462 45.1191354,27.5288462 L38.4807692,27.5288462 C37.3815102,27.5288462 36.4903846,28.4199717 36.4903846,29.5192308 C36.4903846,30.6184898 37.3815102,31.5096154 38.4807692,31.5096154 L41.1346152,31.5096154 L41.7999523,31.5096154 L42.4652893,31.5096154 L42.4652893,31.5096154 Z" id="path-3"></path>
        <path d="M22.3630615,0 C28.9697538,0.0103846154 34.9037308,2.89045385 38.9848846,7.46051538 C39.2150077,7.60548462 39.4102385,7.81276154 39.5421231,8.073 C39.5560385,8.10062308 39.5691231,8.12845385 39.5813769,8.15628462 C42.7509692,12.0112615 44.6538462,16.9468615 44.6538462,22.3269231 C44.6538462,27.6311769 42.7875231,32.6054077 39.5701615,36.5145923 C39.5612308,36.5339077 39.5518846,36.5532231 39.5421231,36.5725385 C39.4150154,36.8234308 39.2291308,37.0251 39.0096,37.1692385 C37.2579231,39.1379538 35.1486,40.8071769 32.7545308,42.0738923 C31.9939615,42.4761923 31.0514538,42.1858385 30.6491538,41.4254769 C30.2468538,40.6651154 30.5372077,39.7226077 31.2975692,39.3201 C32.8182923,38.5157077 34.2052615,37.5225231 35.4335538,36.3766846 C33.7543615,35.7436385 31.8298846,35.2366615 29.7434077,34.8788077 C28.2474,40.7650154 25.6448077,44.6415923 22.3425,44.6536385 L22.3269231,44.6538462 C15.6635308,44.6538462 9.68178462,41.7347308 5.59086923,37.1056846 C5.41183846,36.9721385 5.25876923,36.7978846 5.14744615,36.5881154 C1.93299231,32.7202615 0,27.7493538 0,22.3269231 C0,16.9906846 1.88896154,11.9892462 5.14059231,8.07050769 C5.25482308,7.85035385 5.41453846,7.66883077 5.6025,7.53154615 C7.39031538,5.51090769 9.55322308,3.80346923 12.0131308,2.52013846 C12.7757769,2.1222 13.7166231,2.41795385 14.1145615,3.18080769 C14.5125,3.94345385 14.2167462,4.8843 13.4541,5.28223846 C11.8978615,6.09431538 10.4797385,7.10307692 9.22652308,8.27134615 C10.9048846,8.90356154 12.8277,9.40970769 14.9125154,9.76714615 C16.4112231,3.87616154 19.0185923,0 22.3269231,0 L22.3630615,0 Z M26.6143154,34.4669538 C25.2258923,34.3367308 23.7901154,34.2688154 22.3269231,34.2688154 C20.8637308,34.2688154 19.4279538,34.3367308 18.0395308,34.4669538 C19.1631462,38.7863308 20.7918692,41.5384615 22.3269231,41.5384615 C23.8619769,41.5384615 25.4907,38.7863308 26.6143154,34.4669538 Z M14.9104385,34.8788077 C12.825,35.2364538 10.9015615,35.7430154 9.22299231,36.3758538 C11.4529846,38.4567231 14.1789462,40.0131692 17.2044,40.8478846 C16.2807923,39.2569615 15.5075538,37.2280154 14.9104385,34.8788077 Z M37.6473462,10.7333308 C35.5486154,11.6409462 33.0812308,12.3466846 30.3870462,12.8169 C30.8094923,15.2593615 31.0659923,17.9429538 31.1349462,20.7692308 L39.9807692,20.7692308 C40.8410308,20.7692308 41.5384615,21.4666615 41.5384615,22.3269231 C41.5384615,23.1871846 40.8410308,23.8846154 39.9807692,23.8846154 L31.1349462,23.8846154 C31.0659923,26.7077769 30.8099077,29.3886692 30.3882923,31.8288462 C33.0849692,32.2996846 35.5540154,33.0062538 37.6537846,33.9151154 C40.1211692,30.6528923 41.5384615,26.6155615 41.5384615,22.3269231 C41.5384615,17.9720308 40.0893923,13.9556769 37.6473462,10.7333308 Z M7.00483846,10.7327077 C4.53496154,13.9953462 3.11538462,18.0349615 3.11538462,22.3269231 C3.11538462,26.6791154 4.56258462,30.6931846 7.00193077,33.9142846 C9.10128462,33.0058385 11.5697077,32.2996846 14.2655538,31.8288462 C13.8439385,29.3886692 13.5878538,26.7077769 13.5189,23.8846154 L4.67307692,23.8846154 C3.81281538,23.8846154 3.11538462,23.1871846 3.11538462,22.3269231 C3.11538462,21.4666615 3.81281538,20.7692308 4.67307692,20.7692308 L13.5189,20.7692308 C13.5878538,17.9429538 13.8443538,15.2593615 14.2668,12.8169 C11.5717846,12.3464769 9.10398462,11.6407385 7.00483846,10.7327077 Z M28.0168615,23.8846154 L16.6369846,23.8846154 C16.7117538,26.5885615 16.9778077,29.1321692 17.3776154,31.4014154 C18.9805846,31.2381692 20.6388,31.1534308 22.3269231,31.1534308 C24.0152538,31.1534308 25.6734692,31.2381692 27.2762308,31.4014154 C27.6760385,29.1321692 27.9420923,26.5885615 28.0168615,23.8846154 Z M27.2747769,13.2443308 C25.6724308,13.4075769 24.0146308,13.4921077 22.3269231,13.4921077 C20.6392154,13.4921077 18.9814154,13.4075769 17.3790692,13.2443308 C16.9784308,15.5156538 16.7117538,18.0619615 16.6369846,20.7692308 L28.0168615,20.7692308 C27.9420923,18.0619615 27.6754154,15.5156538 27.2747769,13.2443308 Z M26.6122385,10.1787923 C25.4886231,5.86398462 23.8611462,3.11538462 22.3269231,3.11538462 C20.7927,3.11538462 19.1652231,5.86398462 18.0416077,10.1787923 C19.4294077,10.3090154 20.8645615,10.3767231 22.3269231,10.3767231 C23.7892846,10.3767231 25.2244385,10.3090154 26.6122385,10.1787923 Z M27.4494462,3.80596154 C28.3720154,5.39522308 29.1446308,7.42146923 29.7413308,9.76714615 C31.8251077,9.40991538 33.7470923,8.90397692 35.4246231,8.27217692 C33.1956692,6.19421538 30.4719923,4.64005385 27.4494462,3.80596154 Z" id="path-5"></path>
    </defs>
    <g id="Page-1" stroke="none" stroke-width="1" fill="none" fill-rule="evenodd">
        <g id="Artboard">
            <g id="right">
                <path d="M244.954686,198 C233.868607,186.628542 224.563346,173.218049 217.59869,158.189092 C217.366475,157.687999 216.772011,157.470029 216.270918,157.702244 C215.769824,157.934459 215.551855,158.528923 215.784069,159.030016 C222.561949,173.65593 231.527864,186.771846 242.180016,198 L244.954686,198 Z M437.019224,198 C444.156544,190.67914 450.529034,182.548376 456,173.750219 L456,177.472304 C451.202393,184.827326 445.773324,191.698188 439.794073,198 L437.019224,198 Z M456,18.2497811 C451.981653,11.78766 447.476962,5.68557721 442.540089,4.4408921e-15 L445.174916,0 C449.067001,4.59263019 452.684306,9.44453633 456,14.5276964 L456,18.2497811 Z M239.451044,-3.55271368e-15 C220.22293,22.1265003 207.516717,50.6127012 204.625189,82.2489292 C204.57492,82.7989214 204.088312,83.2040272 203.53832,83.1537583 C202.988328,83.1034895 202.583222,82.6168816 202.633491,82.0668894 C205.50737,50.623764 217.949306,22.2447956 236.815341,-1.77635684e-15 L239.451044,0 Z" id="Combined-Shape" fill="#DCD8C5" fill-rule="nonzero" opacity="0.300000012"></path>
                <path d="M0.0740170354,-3.65218966e-12 C-0.407153524,14.5973614 2.14155331,29.5865484 7.62248275,44.669275 C9.42296412,45.0789759 9.69084465,44.5052705 9.50221759,43.986196 C4.09850128,29.1159488 1.59277114,14.3584428 2.07527066,-4.51461091e-12 L0.0740170354,0 Z M190.731651,198 C130.257838,175.957411 78.6564219,142.683272 44.110227,103.669214 C43.7440968,103.255732 43.7824829,102.623732 45.6075769,102.343339 C80.9185615,142.221098 134.233536,176.101806 196.671469,198.000002 L190.731651,198 Z" id="Combined-Shape" fill="#DCD8C5" fill-rule="nonzero" opacity="0.300000012"></path>
                <path d="M456.000003,49.3627072 C436.630467,47.4420492 415.342273,47.6082246 392.694267,50.0137938 C392.145251,50.0721078 391.747392,50.5650755 391.805624,51.114868 C391.863855,51.6646606 392.356126,52.0630827 392.905142,52.0047688 C415.510273,49.6037535 436.728772,49.4483652 456.000004,51.3751093 L456,49.3627024 Z M120.57565,198 C131.459315,179.738724 147.505383,161.329943 168.128376,143.746207 C168.548744,143.38779 169.179663,143.438493 169.537573,143.859455 C169.895484,144.280418 169.844852,144.91223 169.424485,145.270647 C149.334483,162.39994 133.653814,180.283976 122.910111,198 L120.57565,198 Z" id="Combined-Shape" fill="#DCD8C5" fill-rule="nonzero" opacity="0.300000012"></path>
                <path d="M233.873013,101.843211 C252.168051,92.0422676 271.69463,83.3207418 292.097475,75.8842014 C300.758023,72.7275576 309.450889,69.8481855 318.147172,67.2519759 C318.676256,67.0940219 318.977297,66.5364604 318.819567,66.0066275 C318.661836,65.4767946 318.105063,65.1753272 317.575979,65.3332812 C308.841773,67.9408123 300.111354,70.8326233 291.41367,74.0028026 C270.92214,81.4716673 251.308899,90.2319005 232.92993,100.077808 C232.443116,100.338601 232.259592,100.945216 232.520017,101.432718 C232.780442,101.920221 233.386199,102.104005 233.873013,101.843211 Z" id="Oval-3" fill="#DCD8C5" opacity="0.300000012"></path>
                <g id="Icons/oah-1.5/oah-idea" transform="translate(2.000000, 56.000000)">
                    <g id="fills" transform="translate(0.000000, 0.923077)">
                        <mask id="mask-2" fill="white">
                            <use xlink:href="#path-1"></use>
                        </mask>
                        <use id="Combined-Shape" fill="#DCD8C5" fill-rule="nonzero" xlink:href="#path-1"></use>
                    </g>
                </g>
                <g id="Icons/oah-1.5/oah-like" transform="translate(183.000000, 90.000000)">
                    <g id="fills" transform="translate(0.615385, 0.653846)">
                        <mask id="mask-4" fill="white">
                            <use xlink:href="#path-3"></use>
                        </mask>
                        <use id="Combined-Shape" fill="#DCD8C5" fill-rule="nonzero" xlink:href="#path-3"></use>
                    </g>
                </g>
                <g id="Icons/oah-1.5/oah-web" transform="translate(332.000000, 35.000000)">
                    <g id="fills" transform="translate(0.153846, 0.153846)">
                        <mask id="mask-6" fill="white">
                            <use xlink:href="#path-5"></use>
                        </mask>
                        <use id="Page-1" fill="#DCD8C5" xlink:href="#path-5"></use>
                    </g>
                </g>
            </g>
        </g>
    </g>
</svg>