<svg xmlns="http://www.w3.org/2000/svg" width="14" height="22" viewBox="0 0 14 22"><path fill="#4569ac" d="M9.5 11.5h3.25c.41 0 .75-.34.75-.75v-3a.76.76 0 0 0-.75-.75H9.5V5.75c0-.69.56-1.25 1.25-1.25h2c.41 0 .75-.34.75-.75v-3a.76.76 0 0 0-.75-.75h-3A5.74 5.74 0 0 0 4 5.75V7H.75a.76.76 0 0 0-.75.75v3c0 .41.34.75.75.75H4v9.25c0 .41.34.75.75.75s.75-.34.75-.75v-10a.76.76 0 0 0-.75-.75H1.5V8.5h3.25c.41 0 .75-.34.75-.75v-2C5.5 3.4 7.4 1.5 9.75 1.5H12V3h-1.25A2.75 2.75 0 0 0 8 5.75v2c0 .41.34.75.75.75H12V10H8.75a.76.76 0 0 0-.75.75v10c0 .41.34.75.75.75s.75-.34.75-.75z"/></svg>