<svg width="26px" height="26px" viewBox="0 0 26 26"  xmlns="http://www.w3.org/2000/svg"><path d="M8.5,23.25c-0.414,0 -0.75,-0.336 -0.75,-0.75c0,-0.414 0.336,-0.75 0.75,-0.75l9,0c2.347,0 4.25,-1.903 4.25,-4.25l0,-9c0,-2.347 -1.903,-4.25 -4.25,-4.25l-9,0c-2.347,0 -4.25,1.903 -4.25,4.25l0,9c0,1.16 0.466,2.244 1.279,3.039c0.296,0.289 0.301,0.764 0.012,1.06c-0.29,0.297 -0.765,0.302 -1.061,0.012c-1.099,-1.074 -1.73,-2.543 -1.73,-4.111l0,-9c0,-3.176 2.574,-5.75 5.75,-5.75l9,0c3.176,0 5.75,2.574 5.75,5.75l0,9c0,3.176 -2.574,5.75 -5.75,5.75l-9,0Zm6.839,-14.951c0.371,0.185 0.522,0.635 0.337,1.006c-0.185,0.37 -0.635,0.521 -1.006,0.336c-0.514,-0.256 -1.081,-0.391 -1.67,-0.391c-2.071,0 -3.75,1.679 -3.75,3.75c0,2.071 1.679,3.75 3.75,3.75c2.071,0 3.75,-1.679 3.75,-3.75c0,-0.591 -0.136,-1.161 -0.394,-1.676c-0.186,-0.371 -0.036,-0.821 0.334,-1.007c0.371,-0.185 0.821,-0.035 1.007,0.335c0.362,0.723 0.553,1.523 0.553,2.348c0,2.899 -2.351,5.25 -5.25,5.25c-2.899,0 -5.25,-2.351 -5.25,-5.25c0,-2.899 2.351,-5.25 5.25,-5.25c0.822,0 1.619,0.19 2.339,0.549Zm3.161,0.951c-0.966,0 -1.75,-0.784 -1.75,-1.75c0,-0.966 0.784,-1.75 1.75,-1.75c0.966,0 1.75,0.784 1.75,1.75c0,0.966 -0.784,1.75 -1.75,1.75Zm0,-1.5c0.138,0 0.25,-0.112 0.25,-0.25c0,-0.138 -0.112,-0.25 -0.25,-0.25c-0.138,0 -0.25,0.112 -0.25,0.25c0,0.138 0.112,0.25 0.25,0.25Z" style="fill:#212121;fill-rule:nonzero;"/></svg>
