<svg xmlns="http://www.w3.org/2000/svg" width="24" height="14" viewBox="0 0 24 14"><path fill="#4976a4" d="M23.45 1.39a.75.75 0 0 0-.7-1.01h-5c-.32 0-.6.2-.71.5a17.42 17.42 0 0 1-2.55 5.09V.75a.76.76 0 0 0-.75-.75H8.13a.75.75 0 1 0 0 1.5h4.86v6.2c0 .6.67.96 1.17.63 1.57-1.05 2.92-3.2 4.12-6.45h3.37a15.7 15.7 0 0 1-3.4 5.28.75.75 0 0 0 .21 1.23c1.23.56 2.45 2.1 3.61 4.66a.75.75 0 1 0 1.36-.62c-1.05-2.33-2.2-3.96-3.47-4.89a19.13 19.13 0 0 0 3.49-6.15zM9.03 6.44V3.7c0-.42.33-.75.75-.75.41 0 .75.33.75.75v4c0 .52-.52.89-1.01.71-1.46-.54-2.7-1.77-3.74-3.48-.48-.79-.89-1.62-1.23-2.45l-.23-.6H1.74c2.01 6.58 5.79 9.89 11.45 10.1.07-.22.16-.43.27-.64.48-.87 1.23-1.43 2.29-1.43 1.33 0 2.23.75 2.61 2.08h.88a.75.75 0 1 1 0 1.5h-1.49a.75.75 0 0 1-.74-.65c-.15-1.03-.54-1.43-1.27-1.43-.43 0-.73.22-.96.65.05-.09-.4 1.43-1.04 1.43C6.78 13.49 2.17 9.37.03 1.32A.75.75 0 0 1 .75.38h4.1c.33 0 .62.22.72.53a15.44 15.44 0 0 0 1.48 3.23 8.06 8.06 0 0 0 1.98 2.3z"/></svg>