<svg xmlns="http://www.w3.org/2000/svg" width="26" height="26" viewBox="0 0 26 26"><path fill="#212121" d="M6.999 12.75a.75.75 0 1 1 0-1.5H9.5a.75.75 0 0 0 0-1.5H7.999a.75.75 0 1 1 0-1.5H10.5a.75.75 0 0 0 0-1.5h-1a.75.75 0 0 1 0-1.5h5.305c.354 0 .704.084 1.02.245l1.665.847c.527.268 1.11.408 1.701.408H20.5a.75.75 0 0 0 0-1.5h-1.309c-.355 0-.704-.084-1.02-.245l-1.666-.847a3.75 3.75 0 0 0-1.7-.408H9.5a2.25 2.25 0 0 0-2.093 3.078 2.252 2.252 0 0 0-1.428 3.166 2.248 2.248 0 0 0-1 3 2.25 2.25 0 0 0 1.02 4.256h5.986l-1.076 3.541a3.762 3.762 0 0 0-.162 1.09v.588c0 .984.798 1.783 1.783 1.783h.218a2.598 2.598 0 0 0 2.413-1.634l.535-1.34 2.245-4.028h2.212a1.75 1.75 0 0 0 1.726-1.462L22.9 9.659a.75.75 0 0 0-1.479-.247l-1.022 6.129a.25.25 0 0 1-.246.209H17.5a.752.752 0 0 0-.656.386l-2.5 4.5-.576 1.425c-.167.417-.57.691-1.02.691h-.218a.283.283 0 0 1-.283-.283v-.588c0-.221.033-.442.097-.654l1.371-4.509a.75.75 0 0 0-.718-.968H5.999a.75.75 0 1 1 0-1.5H8.5a.75.75 0 0 0 0-1.5H6.999z"/></svg>