<svg xmlns="http://www.w3.org/2000/svg" width="26" height="26" viewBox="0 0 26 26"><path fill="#07aace" d="M4.548 12.012a.75.75 0 1 1-1.096-1.024l6.823-7.31a.75.75 0 0 1 1.096 1.023l-6.823 7.311zm17.904 0l-6.823-7.311a.75.75 0 1 1 1.096-1.023l6.823 7.31a.75.75 0 1 1-1.096 1.024zM4.564 17.208a.75.75 0 0 1-1.128-.988l.901-1.031a2.75 2.75 0 0 1 4.323.234l.398.569a1.25 1.25 0 0 0 2.048 0l.223-.319a2.75 2.75 0 0 1 4.506 0l.223.319a1.25 1.25 0 0 0 2.048 0l.398-.569a2.75 2.75 0 0 1 4.323-.234l.902 1.031a.75.75 0 1 1-1.129.988l-.902-1.031a1.25 1.25 0 0 0-1.965.106l-.398.569a2.75 2.75 0 0 1-4.506 0l-.223-.318a1.25 1.25 0 0 0-2.048 0l-.223.318a2.75 2.75 0 0 1-4.506 0l-.398-.569a1.25 1.25 0 0 0-1.965-.106l-.902 1.031zm0 5a.75.75 0 0 1-1.128-.988l.901-1.031a2.75 2.75 0 0 1 4.323.234l.398.569a1.25 1.25 0 0 0 2.048 0l.223-.319a2.75 2.75 0 0 1 4.506 0l.223.319a1.25 1.25 0 0 0 2.048 0l.398-.569a2.75 2.75 0 0 1 4.323-.234l.902 1.031a.75.75 0 1 1-1.129.988l-.902-1.031a1.25 1.25 0 0 0-1.965.106l-.398.569a2.75 2.75 0 0 1-4.506 0l-.223-.318a1.25 1.25 0 0 0-2.048 0l-.223.318a2.75 2.75 0 0 1-4.506 0l-.398-.569a1.25 1.25 0 0 0-1.965-.106l-.902 1.031z"/></svg>