<svg xmlns="http://www.w3.org/2000/svg" width="26" height="26" viewBox="0 0 26 26"><path fill="#212121" fill-opacity="0.05" d="M13.5 2.25a8.25 8.25 0 0 0-8.25 8.25c0 1.446.744 3.295 2.071 5.5a40.56 40.56 0 0 0 1.82 2.741 62.56 62.56 0 0 0 3.8 4.76.75.75 0 0 0 1.117-1.002 59.256 59.256 0 0 1-1.153-1.348 61.088 61.088 0 0 1-2.546-3.286 39.07 39.07 0 0 1-1.752-2.637A10.682 10.682 0 0 1 6.75 10.5a6.75 6.75 0 0 1 13.5 0c0 1.793-1.69 4.85-4.37 8.398a.75.75 0 1 0 1.196.904c2.889-3.823 4.674-7.052 4.674-9.302a8.25 8.25 0 0 0-8.25-8.25z"/><path fill="#212121" fill-opacity="0.05" d="M13.5 7.25a3.25 3.25 0 1 0 3.25 3.25 3.25 3.25 0 0 0-3.25-3.25zm0 5a1.75 1.75 0 1 1 1.75-1.75 1.75 1.75 0 0 1-1.75 1.75z"/></svg>