<svg xmlns="http://www.w3.org/2000/svg" width="26" height="26" viewBox="0 0 26 26"><path fill="#fd423b" d="M4.861 11.363l5.414-.43a.749.749 0 0 0 .633-.46l2.082-5.016 2.082 5.016c.108.26.352.438.633.46l5.414.43-4.127 3.53a.748.748 0 0 0-.242.744l1.264 5.282-4.633-2.834a.75.75 0 1 0-.782 1.279l6.174 3.778a.75.75 0 0 0 1.121-.814l-1.579-6.594 5.152-4.406a.75.75 0 0 0-.428-1.317l-6.758-.537-2.598-6.261a.75.75 0 0 0-1.386 0L9.699 9.474l-6.758.537a.75.75 0 0 0-.428 1.317l5.152 4.406-1.579 6.594a.751.751 0 0 0 1.459.349l1.685-7.04a.748.748 0 0 0-.242-.744l-4.127-3.53z"/></svg>