<svg width="26px" height="26px" viewBox="0 0 26 26" version="1.1" xmlns="http://www.w3.org/2000/svg"><path id="Combined.-Shape.-Copy" d="M5.823,15.965c-0.082,-0.151 -0.154,-0.31 -0.217,-0.477l-0.702,0.264l0.013,0.749c0.38,-0.006 0.775,-0.042 1.183,-0.107c0.234,-0.037 0.472,-0.084 0.714,-0.14c0.706,-0.162 0.795,-1.13 0.131,-1.418c-1.409,-0.612 -2.233,-1.402 -2.534,-2.402c-0.057,-0.189 -0.095,-0.386 -0.115,-0.592c-0.013,-0.13 -0.018,-0.264 -0.016,-0.401l-0.75,-0.012l-0.278,0.696c0.37,0.148 0.757,0.251 1.159,0.309c0.264,0.039 0.536,0.058 0.813,0.058c0.665,0 1.001,-0.8 0.537,-1.274c-1.259,-1.287 -1.738,-2.455 -1.495,-3.59c1.514,1.76 3.367,3.008 5.252,3.674c2.149,0.758 4.119,0.681 4.09,-0.774c-0.051,-2.546 1.247,-4.278 3.996,-4.278c0.879,0 1.698,0.358 2.293,0.98c0.511,0.534 1.046,0.346 2.979,-0.587c0.373,-0.18 0.529,-0.628 0.349,-1.001c-0.18,-0.373 -0.628,-0.53 -1.001,-0.35c-0.621,0.3 -1.096,0.507 -1.417,0.62c-0.03,0.011 -0.059,0.021 -0.086,0.03c-0.847,-0.76 -1.948,-1.192 -3.117,-1.192c-3.575,0 -5.443,2.343 -5.496,5.498c-0.046,0.006 -0.098,0.01 -0.158,0.013c-0.484,0.019 -1.177,-0.107 -1.933,-0.374c-1.948,-0.687 -3.881,-2.107 -5.331,-4.155c-0.31,-0.438 -0.967,-0.418 -1.25,0.039c-0.992,1.6 -0.97,3.265 0.009,4.912c0.149,0.251 0.321,0.502 0.515,0.753c0.106,0.135 0.217,0.271 0.336,0.406c0.123,0.142 0.254,0.283 0.392,0.425l0.536,-0.525l0,-0.75c-0.513,0 -0.983,-0.087 -1.416,-0.26c-0.121,-0.048 -0.245,-0.063 -0.363,-0.049c-0.357,0.041 -0.658,0.339 -0.665,0.734c-0.024,1.493 0.568,2.733 1.729,3.696c0.22,0.182 0.46,0.354 0.72,0.517c0.188,0.117 0.386,0.228 0.594,0.335c0.168,0.086 0.343,0.168 0.524,0.247l0.299,-0.688l-0.168,-0.731c-0.57,0.131 -1.099,0.2 -1.587,0.209c-0.142,0.002 -0.272,0.043 -0.382,0.111c-0.29,0.18 -0.439,0.55 -0.307,0.902c0.703,1.872 2.277,3.021 4.617,3.426c0.408,0.071 0.796,-0.202 0.867,-0.611c0.07,-0.408 -0.203,-0.796 -0.611,-0.867c-1.384,-0.24 -2.361,-0.76 -2.975,-1.569c-0.102,-0.135 -0.194,-0.278 -0.277,-0.429Zm16.453,-6.375l0.535,-0.47c0.311,-0.274 0.341,-0.748 0.068,-1.059c-0.274,-0.311 -0.748,-0.341 -1.059,-0.068l-0.789,0.695c-0.162,0.142 -0.255,0.347 -0.255,0.563l0,1.292c0,6.085 -4.932,11.017 -11.017,11.017c-2.225,0 -5.038,-0.715 -6.657,-1.722c-0.351,-0.219 -0.814,-0.111 -1.033,0.241c-0.218,0.352 -0.111,0.814 0.241,1.033c1.871,1.163 4.957,1.948 7.449,1.948c6.913,0 12.517,-5.604 12.517,-12.517c0,-0.276 0,-0.349 0,-0.736l0,-0.217Z" style="fill:#00a2f4;fill-rule:nonzero;"/></svg>
