<svg width="26px" height="26px" viewBox="0 0 26 26" version="1.1" xmlns="http://www.w3.org/2000/svg"><path id="Triangle.-3" d="M7.75,7.924l0,-2.055c0,-0.139 0.112,-0.25 0.25,-0.25c0.049,0 0.098,0.014 0.139,0.042l10.697,7.131c0.115,0.077 0.146,0.232 0.069,0.347c-0.018,0.027 -0.042,0.051 -0.069,0.069l-10.697,7.131c-0.115,0.077 -0.27,0.046 -0.347,-0.069c-0.027,-0.041 -0.042,-0.089 -0.042,-0.139l0,-8.107c0,-0.414 -0.336,-0.75 -0.75,-0.75c-0.414,0 -0.75,0.336 -0.75,0.75l0,8.107c0,0.346 0.102,0.684 0.294,0.971c0.536,0.804 1.623,1.022 2.427,0.486l10.697,-7.132c0.192,-0.128 0.357,-0.293 0.485,-0.485c0.536,-0.804 0.319,-1.891 -0.485,-2.427l-10.697,-7.132c-0.288,-0.191 -0.626,-0.293 -0.971,-0.293c-0.966,0 -1.75,0.783 -1.75,1.75l0,2.055c0,0.414 0.336,0.75 0.75,0.75c0.414,0 0.75,-0.336 0.75,-0.75Z" style="fill:#ec3021;fill-rule:nonzero;"/></svg>
