<?xml version="1.0" encoding="utf-8"?>
<!-- Svg Vector Icons : http://www.onlinewebfonts.com/icon -->
<!DOCTYPE svg PUBLIC "-//W3C//DTD SVG 1.1//EN" "http://www.w3.org/Graphics/SVG/1.1/DTD/svg11.dtd">
<svg version="1.1" xmlns="http://www.w3.org/2000/svg" xmlns:xlink="http://www.w3.org/1999/xlink" x="0px" y="0px" viewBox="0 0 1000 1000" enable-background="new 0 0 1000 1000" xml:space="preserve">
<metadata> Svg Vector Icons : http://www.onlinewebfonts.com/icon </metadata>
<g><path d="M981,937.5L543.4,499.9L979.1,64.2c11.9-12,11.9-31.4,0-43.3c-12-11.9-31.4-11.9-43.3,0L500.1,456.6L62.5,19C50.5,7,31,7,19,19C7,31,7,50.5,19,62.5l437.6,437.6L19.9,936.7c-12,12-12,31.3,0,43.3c12,12,31.4,12,43.3,0l436.7-436.7L937.5,981c12,12,31.5,12,43.5,0C993,969,993,949.5,981,937.5z"/></g>
</svg>