<svg width="26px" height="26px" viewBox="0 0 26 26" version="1.1" xmlns="http://www.w3.org/2000/svg"><path id="Combined.-Shape" d="M15.25,14.25l3.25,0c0.414,0 0.75,-0.336 0.75,-0.75l0,-3c0,-0.414 -0.336,-0.75 -0.75,-0.75l-3.25,0l0,-1.25c0,-0.69 0.56,-1.25 1.25,-1.25l2,0c0.414,0 0.75,-0.336 0.75,-0.75l0,-3c0,-0.414 -0.336,-0.75 -0.75,-0.75l-3,0c-3.176,0 -5.75,2.574 -5.75,5.75l0,1.25l-3.25,0c-0.414,0 -0.75,0.336 -0.75,0.75l0,3c0,0.414 0.336,0.75 0.75,0.75l3.25,0l0,9.25c0,0.414 0.336,0.75 0.75,0.75c0.414,0 0.75,-0.336 0.75,-0.75l0,-10c0,-0.414 -0.336,-0.75 -0.75,-0.75l-3.25,0l0,-1.5l3.25,0c0.414,0 0.75,-0.336 0.75,-0.75l0,-2c0,-2.347 1.903,-4.25 4.25,-4.25l2.25,0l0,1.5l-1.25,0c-1.519,0 -2.75,1.231 -2.75,2.75l0,2c0,0.414 0.336,0.75 0.75,0.75l3.25,0l0,1.5l-3.25,0c-0.414,0 -0.75,0.336 -0.75,0.75l0,10c0,0.414 0.336,0.75 0.75,0.75c0.414,0 0.75,-0.336 0.75,-0.75l0,-9.25Z" style="fill:#4569ac;fill-rule:nonzero;"/></svg>
