<svg xmlns="http://www.w3.org/2000/svg" width="26" height="26" viewBox="0 0 26 26"><path fill="#212121" d="M20.001 13.25a.75.75 0 1 1 0 1.5H17.5a.75.75 0 0 0 0 1.5h1.501a.75.75 0 1 1 0 1.5H16.5a.75.75 0 0 0 0 1.5h1a.75.75 0 0 1 0 1.5h-5.305c-.354 0-.704-.084-1.02-.245l-1.665-.847a3.753 3.753 0 0 0-1.701-.408H6.5a.75.75 0 0 0 0 1.5h1.309c.355 0 .704.084 1.02.245l1.666.847a3.75 3.75 0 0 0 1.7.408H17.5a2.25 2.25 0 0 0 2.093-3.078 2.252 2.252 0 0 0 1.428-3.166 2.248 2.248 0 0 0 1-3 2.25 2.25 0 0 0-1.02-4.256h-5.986l1.076-3.541c.107-.353.162-.721.162-1.09v-.588c0-.984-.798-1.783-1.783-1.783h-.218a2.598 2.598 0 0 0-2.413 1.634l-.535 1.34L9.059 8.75H6.847a1.75 1.75 0 0 0-1.726 1.462L4.1 16.341a.75.75 0 0 0 1.479.247l1.022-6.129a.25.25 0 0 1 .246-.209H9.5a.752.752 0 0 0 .656-.386l2.5-4.5.576-1.425c.167-.417.57-.691 1.02-.691h.218c.156 0 .283.127.283.283v.588c0 .221-.033.442-.097.654l-1.371 4.509a.75.75 0 0 0 .718.968h6.998a.75.75 0 1 1 0 1.5H18.5a.75.75 0 0 0 0 1.5h1.501z"/></svg>