<svg width="26px" height="26px" viewBox="0 0 26 26" version="1.1" xmlns="http://www.w3.org/2000/svg"><path id="vk" d="M24.703,8.243c0.182,-0.49 -0.18,-1.011 -0.703,-1.011l-5.001,0c-0.318,0 -0.602,0.201 -0.708,0.502c-0.798,2.277 -1.656,3.973 -2.552,5.087c0,-0.148 0,-0.315 0,-0.506l0,-4.715c0,-0.414 -0.336,-0.75 -0.75,-0.75l-5.611,0c-0.414,0 -0.75,0.336 -0.75,0.75c0,0.414 0.336,0.75 0.75,0.75l4.861,0l0,6.204c0,0.599 0.668,0.956 1.166,0.623c1.572,-1.05 2.928,-3.198 4.122,-6.445l3.371,0c-0.944,2.25 -2.08,4.009 -3.401,5.281c-0.381,0.367 -0.273,1.003 0.208,1.223c1.232,0.563 2.455,2.108 3.612,4.659c0.171,0.377 0.616,0.544 0.993,0.373c0.377,-0.171 0.544,-0.615 0.373,-0.992c-1.054,-2.324 -2.201,-3.956 -3.472,-4.884c1.388,-1.56 2.55,-3.611 3.492,-6.149Zm-16.399,2.751c-0.432,-0.707 -0.805,-1.47 -1.117,-2.232c-0.187,-0.457 -0.31,-0.808 -0.369,-1c-0.097,-0.315 -0.388,-0.53 -0.717,-0.53l-4.101,0c-0.493,0 -0.852,0.467 -0.725,0.943c2.145,8.044 6.753,12.16 13.714,12.16c0.643,0 1.091,-1.52 1.041,-1.428c0.233,-0.43 0.527,-0.646 0.963,-0.645c0.731,0.001 1.112,0.395 1.264,1.432c0.054,0.368 0.37,0.641 0.742,0.641l1.489,0c0.414,0 0.75,-0.335 0.75,-0.75c0,-0.414 -0.336,-0.75 -0.75,-0.75l-0.883,0c-0.378,-1.325 -1.275,-2.071 -2.61,-2.073c-1.052,-0.002 -1.808,0.555 -2.283,1.428c-0.112,0.207 -0.202,0.417 -0.277,0.636c-5.655,-0.201 -9.44,-3.516 -11.441,-10.094c1.63,0 2.183,0 2.572,0c0.069,0.187 0.146,0.387 0.232,0.597c0.341,0.833 0.749,1.665 1.227,2.447c1.046,1.711 2.28,2.947 3.746,3.482c0.489,0.179 1.007,-0.183 1.007,-0.704l0,-4.006c0,-0.414 -0.336,-0.75 -0.75,-0.75c-0.414,0 -0.75,0.336 -0.75,0.75l0,2.745c-0.705,-0.525 -1.368,-1.31 -1.974,-2.299Z" style="fill:#4976a4;fill-rule:nonzero;"/></svg>
