<svg xmlns="http://www.w3.org/2000/svg" width="26" height="26" viewBox="0 0 26 26"><path fill="#13ab41" d="M10.821 21.291a24.53 24.53 0 0 1 1.293-1.971c.292-.407.594-.812.975-1.313-.055.073.678-.885.843-1.106.282-.375.465-.635.589-.844.089-.149.151-.278.19-.409.099-.339.058-.701-.314-.953-.422-.286-.769-.178-1.129.086a9.325 9.325 0 0 1-.409.309c-.607.401-1.412.46-2.844-.112-.444-.177-.853-.076-1.282.191-.187.117-.857.63-.804.59-1.06.777-1.895.852-3.337-.166-.208-.146-.326-1.529-.12-2.175.068-.215.69-.812 1.7-1.59.166-.129.344-.263.54-.409l.496-.366.482-.353c.038-.027.038-.027.074-.056.505-.395.686-.763.832-1.411.106-.472.17-.627.426-.904.778-.843 1.988-1.41 2.955-1.229a.75.75 0 0 0 .888-.755 26.563 26.563 0 0 0-.032-.749 33.86 33.86 0 0 1-.022-.515c-.021-.585-.008-.993.045-1.268.943.128 2.221 1.159 2.397 2.385.052.357.264.543.532.655.101.042.204.069.34.097.099.02.51.089.533.093.239.043.444.086.653.14a5.375 5.375 0 0 1 1.531.643c1.35.845 2.299 2.347 2.696 4.796.404 2.483.167 4.238-.582 5.982a.75.75 0 0 0 1.378.592c.86-2.001 1.135-4.044.685-6.815-.465-2.863-1.655-4.746-3.381-5.827a6.92 6.92 0 0 0-1.951-.824c-.241-.062-.74-.158-1.048-.215-.527-1.884-2.487-3.248-4.009-3.248-1.209 0-1.387.915-1.318 2.867.005.133.01.259.019.44-1.268.086-2.531.783-3.412 1.738-.472.513-.628.887-.787 1.592-.077.343-.115.42-.293.56l-.518.379c-.19.14-.351.258-.504.373-.203.15-.387.29-.561.424-1.306 1.005-2.01 1.683-2.214 2.324-.381 1.2-.209 3.224.685 3.855 2.013 1.42 3.542 1.283 5.089.151.005-.004.595-.456.71-.527.065-.041.031-.033-.067-.072 1.015.405 1.868.563 2.6.514l-.163.213a60.07 60.07 0 0 0-1.001 1.348 26.01 26.01 0 0 0-1.371 2.093c-.743 1.281-1.181 2.397-1.255 3.378a.75.75 0 0 0 .748.806h6.979a.75.75 0 0 0 0-1.5H9.928c.173-.56.474-1.208.893-1.932z"/></svg>